<svg xmlns="http://www.w3.org/2000/svg" width="48" height="48" viewBox="0 0 48 48">
  <defs>
    <linearGradient id="aave-a" x1="90.7%" x2="16.3%" y1="22.7%" y2="85.3%">
      <stop offset="0%" stop-color="#B6509E"/>
      <stop offset="100%" stop-color="#2EBAC6"/>
    </linearGradient>
  </defs>
  <g fill="none" fill-rule="evenodd">
    <circle cx="24" cy="24" r="24" fill="url(#aave-a)" fill-rule="nonzero"/>
    <path fill="#FFF" fill-rule="nonzero" d="M34.5022268,33.5617113 L26.3847216,13.9436289 C25.926,12.9298763 25.2478763,12.4329897 24.3503505,12.4329897 L23.6323918,12.4329897 C22.734866,12.4329897 22.0567423,12.9298763 21.5980206,13.9436289 L18.0680412,22.4907216 L15.3951959,22.4907216 C14.5943057,22.4938186 13.9450608,23.140857 13.9392371,23.941732 L13.9392371,23.9615876 C13.9450608,24.7624626 14.5943057,25.4095009 15.3951959,25.4125979 L16.8309278,25.4125979 L13.4605361,33.5617113 C13.3967941,33.7405013 13.3631011,33.9286132 13.3608247,34.1184124 C13.3608247,34.5755876 13.500433,34.9333608 13.759732,35.2116495 C14.0190309,35.4899381 14.3779794,35.6289278 14.8367629,35.6289278 C15.1379673,35.6248113 15.430524,35.5275733 15.6742268,35.3505155 C15.9335258,35.1716289 16.1130309,34.9132577 16.2526392,34.6151134 L19.9623711,25.4122887 L22.5352577,25.4122887 C23.3361479,25.4091917 23.9853929,24.7621533 23.9912165,23.9612784 L23.9912165,23.9215052 C23.9853929,23.1206302 23.3361479,22.4735918 22.5352577,22.4704948 L21.1592165,22.4704948 L23.9913402,15.414433 L31.71,34.6151753 C31.8496082,34.9133196 32.0291134,35.1718763 32.2884124,35.3505773 C32.5321839,35.5276836 32.8248346,35.6249241 33.1261237,35.6289278 C33.5848454,35.6289278 33.9438557,35.4897938 34.2031546,35.2115258 C34.4624536,34.9331753 34.6020619,34.5754639 34.6020619,34.1182887 C34.6095641,33.9277165 34.5754972,33.737795 34.5022268,33.5617113 L34.5022268,33.5617113 Z"/>
  </g>
</svg>
