<svg xmlns="http://www.w3.org/2000/svg" width="48" height="48" viewBox="0 0 48 48">
  <g fill="none" fill-rule="evenodd">
    <path fill="#F7931A" d="M48,24 C48,20.85888 47.37504,17.71776 46.17312,14.81568 C44.9712,11.9136 43.19184,9.25056 40.9704,7.0296 C38.74944,4.80816 36.0864,3.0288 33.18432,1.82688 C30.28224,0.62496 27.14112,0 24,0 C20.85888,0 17.71776,0.62496 14.81568,1.82688 C11.9136,3.0288 9.25056,4.80816 7.0296,7.0296 C4.80816,9.25056 3.0288,11.9136 1.82688,14.81568 C0.62496,17.71776 0,20.85888 0,24 C0,27.14112 0.62496,30.28224 1.82688,33.18432 C3.0288,36.0864 4.80816,38.74944 7.0296,40.9704 C9.25056,43.19184 11.9136,44.9712 14.81568,46.17312 C17.71776,47.37504 20.85888,48 24,48 C27.14112,48 30.28224,47.37504 33.18432,46.17312 C36.0864,44.9712 38.74944,43.19184 40.9704,40.9704 C43.19184,38.74944 44.9712,36.0864 46.17312,33.18432 C47.37504,30.28224 48,27.14112 48,24 Z"/>
    <path fill="#FFF" d="M23.01456,8.70121188 L25.644,9.35182574 L24.58896,13.5482614 C25.296,13.7065188 26.00688,13.8690535 26.69808,14.0396673 L26.69808,14.0396673 L27.74928,9.86984554 L30.38256,10.5190337 L29.30448,14.8010139 C32.62896,15.9387564 35.0592,17.6368158 34.58208,20.8005386 C34.23408,23.1140436 32.94096,24.2356277 31.21872,24.6258059 C33.58176,25.8448158 34.7856,27.7125386 33.6408,30.9504 C32.21904,34.9738455 28.83936,35.3131723 24.35088,34.4705584 L24.35088,34.4705584 L23.2608,38.7948356 L20.62752,38.1451723 L21.70176,33.8784 C21.01824,33.7120634 20.32224,33.5338455 19.6032,33.340895 L19.6032,33.340895 L18.52512,37.6266772 L15.8928,36.9770139 L16.98192,32.6446574 C16.36896,32.490202 15.744,32.3229149 15.10656,32.1656079 C13.96368,31.8828356 12.82032,31.6005386 11.67744,31.3177663 L11.67744,31.3177663 L12.98544,28.3351129 C13.0824,28.3607762 14.92752,28.846004 14.89968,28.8075089 C15.6456,28.990004 15.97776,28.5095287 16.10688,28.1887366 L16.10688,28.1887366 L19.06416,16.452499 C19.09632,15.9002614 18.9,15.1997465 17.83392,14.9364594 C17.8542494,14.9239352 17.4540656,14.8237419 17.0144892,14.7188372 L16.6833757,14.6405716 C16.3023546,14.5512557 15.9641224,14.4742113 15.924,14.4650139 L15.924,14.4650139 L16.62288,11.6795881 L20.25648,12.5768554 L20.25216,12.5925386 C20.79936,12.7246574 21.36144,12.8520238 21.93264,12.9836673 L21.93264,12.9836673 L23.01456,8.70121188 Z M21.9048,24.4632713 L20.45952,30.2037861 C22.24464,30.6414891 27.74928,32.3932515 28.56528,29.1520634 C29.41344,25.7744792 23.68992,24.9052515 21.9048,24.4632713 L21.9048,24.4632713 Z M23.8776,16.6269149 L22.56864,21.8332515 C24.05376,22.2006178 28.63632,23.6981228 29.3784,20.7539644 C30.15168,17.6795881 25.36608,16.9942812 23.8776,16.6269149 L23.8776,16.6269149 Z"/>
  </g>
</svg>
