<svg xmlns="http://www.w3.org/2000/svg" width="48" height="48" viewBox="0 0 48 48">
  <defs>
    <linearGradient id="comp_b-a" x1="50%" x2="50%" y1="0%" y2="100%">
      <stop offset="0%" stop-color="#0C3D2E"/>
      <stop offset="100%" stop-color="#0C3D2E"/>
    </linearGradient>
  </defs>
  <g fill="none" fill-rule="evenodd">
    <path fill="url(#comp_b-a)" fill-rule="nonzero" d="M24,48 C37.2552,48 48,37.2552 48,24 C48,10.7448 37.2552,0 24,0 C10.7448,0 0,10.7448 0,24 C0,37.2552 10.7448,48 24,48 Z"/>
    <path fill="#00D395" d="M13.8648,32.0472 C13.1472,31.608 12.708,30.828 12.708,29.988 L12.708,25.2984 C12.708,24.7416 13.1616,24.2904 13.7184,24.2927905 C13.896,24.2927905 14.0712,24.3408 14.2248,24.4296 L24.8064,30.6 C25.4256,30.96 25.807208,31.6224 25.807208,32.34 L25.807208,37.1976 C25.8096,37.8648 25.2696,38.4072 24.6024,38.4072 C24.3792,38.4072 24.1584,38.3448 23.9688,38.2296 L13.8648,32.0472 Z M29.6376,23.1456 C30.2568,23.5056 30.636,24.1704 30.6384,24.8856 L30.6384,34.7448 C30.6384,35.0352 30.4824,35.304 30.228,35.4456 L27.912,36.7488 C27.8832,36.7656 27.852,36.7776 27.8184,36.7872 L27.8184,31.3128 C27.8184,30.6048 27.4464,29.9472 26.8368,29.5824 L17.544,24.024 L17.544,17.844 C17.544,17.2872 17.9976,16.836 18.5544,16.8383905 C18.732,16.8383905 18.9072,16.8864 19.0608,16.9752 L29.6376,23.1456 Z M34.2696,15.864 C34.8912,16.224 35.2728,16.8888 35.2728,17.6064 L35.2728,32.0064 C35.2704,32.3016 35.1072,32.5728 34.848,32.7144 L32.652,33.9 L32.652,23.8752 C32.652,23.1672 32.28,22.512 31.6752,22.1472 L22.176,16.4496 L22.176,10.5888 C22.176,10.4112 22.224,10.236 22.3104,10.0824 C22.5912,9.6024 23.208,9.4392 23.688,9.7176 L34.2696,15.864 Z"/>
  </g>
</svg>
