<svg xmlns="http://www.w3.org/2000/svg" width="48" height="48" viewBox="0 0 48 48">
  <g fill="none" fill-rule="evenodd">
    <path fill="#69E2DC" d="M24,-1.02318154e-14 C10.7475196,-1.02318154e-14 0,10.7475196 0,24 C0,37.2575986 10.7475196,48 24,48 C37.2575986,48 48,37.2524786 48,24 C48.0051182,10.7475196 37.2575986,-1.02318154e-14 24,-1.02318154e-14 Z"/>
    <path fill="#FFF" d="M25.932799,25.130239 L34.3500787,33.5475187 C35.0374387,34.2348787 34.9497587,35.3574387 34.1849587,35.9551986 C31.5097588,38.0601586 28.2047989,39.2025585 24.8025591,39.1974556 C15.8271994,39.1974556 8.67263967,31.4227188 9.69727963,22.2425592 C10.4825596,15.2127994 16.2099194,9.56735964 23.2473591,8.87231966 C27.412479,8.46015968 31.2825588,9.72991963 34.2476787,12.0851195 C34.9823987,12.6700795 35.0150387,13.7823995 34.3500787,14.4447994 L25.927679,22.8652791 C25.304959,23.4924791 25.307519,24.5049591 25.932799,25.130239 Z"/>
  </g>
</svg>
