<svg xmlns="http://www.w3.org/2000/svg" width="48" height="48" viewBox="0 0 48 48">
  <g fill="none" fill-rule="evenodd">
    <path fill="#F4B731" d="M48,24 C48,20.85888 47.37504,17.71776 46.17312,14.81568 C44.9712,11.9136 43.19184,9.25056 40.9704,7.0296 C38.74944,4.80816 36.0864,3.0288 33.18432,1.82688 C30.28224,0.62496 27.14112,0 24,0 C20.85888,0 17.71776,0.62496 14.81568,1.82688 C11.9136,3.0288 9.25056,4.80816 7.0296,7.0296 C4.80816,9.25056 3.0288,11.9136 1.82688,14.81568 C0.62496,17.71776 0,20.85888 0,24 C0,27.14112 0.62496,30.28224 1.82688,33.18432 C3.0288,36.0864 4.80816,38.74944 7.0296,40.9704 C9.25056,43.19184 11.9136,44.9712 14.81568,46.17312 C17.71776,47.37504 20.85888,48 24,48 C27.14112,48 30.28224,47.37504 33.18432,46.17312 C36.0864,44.9712 38.74944,43.19184 40.9704,40.9704 C43.19184,38.74944 44.9712,36.0864 46.17312,33.18432 C47.37504,30.28224 48,27.14112 48,24 Z"/>
    <path fill="#FFF" d="M24.12,10.9695683 C24.93744,10.9695683 25.74768,11.0902812 26.54976,11.2371327 C28.20384,11.5393901 29.79216,12.124895 31.24512,12.9594297 C32.21184,13.5149941 33.09504,14.1988752 33.88464,14.9797069 C34.48992,15.5789941 35.01408,16.2509941 35.48928,16.9543604 C35.96832,17.6634297 36.35328,18.4304792 36.66096,19.2269941 C36.69936,19.4346772 36.9,19.5744 37.10928,19.5392317 L39.7944,19.5392317 C40.13904,19.5392317 40.13904,19.5392317 40.1544,19.866202 C40.19184,20.6774495 40.19184,21.4891723 40.1544,22.3023208 C40.14336,22.5394693 40.06416,22.5998257 39.8232,22.5998257 L37.75344,22.5998257 C37.54368,22.5998257 37.4832,22.5998257 37.49808,22.8669149 C37.54704,23.7736871 37.58016,24.6795089 37.49808,25.5843802 C37.49808,25.8367366 37.49808,25.866202 37.78416,25.866202 L40.15296,25.866202 L40.15296,25.866202 C40.20528,25.9329743 40.20528,25.9997465 40.1922,26.066697 L40.1602267,26.2008884 C40.1558667,26.2233109 40.15296,26.2457663 40.15296,26.2682614 C40.16832,26.4407762 40.16832,26.6147168 40.15296,26.7872317 L40.15296,28.5846178 L40.15296,28.5846178 C40.15296,28.8369743 40.07808,28.9120634 39.85248,28.9120634 L37.0176,28.9120634 L37.0176,28.9120634 C36.82032,28.8740436 36.62784,28.9995089 36.58224,29.1943604 C35.90736,30.9318653 34.82736,32.4897267 33.432,33.7391525 C32.9232,34.1949149 32.38656,34.6212119 31.82688,35.0156673 C31.2264,35.3573703 30.64224,35.7138059 30.02688,35.996103 C28.89984,36.5136475 27.7056,36.8729347 26.4864,37.1091327 C25.332,37.332499 24.15456,37.4075881 22.97616,37.3914297 C19.50672,37.343905 16.03632,37.343905 12.56592,37.3914297 L12.56592,37.3762218 L12.57024,37.3733703 L12.57024,29.1610931 C12.57024,28.9671921 12.57024,28.9386772 12.33072,28.9386772 L9.07536,28.9386772 L9.07536,28.9386772 C8.89488,28.9386772 8.82048,28.9386772 8.82048,28.7010535 L8.82048,25.8795089 L8.82048,25.8795089 L12.30048,25.8795089 C12.4944,25.8795089 12.57024,25.8795089 12.57024,25.6266772 L12.57024,22.834598 C12.57024,22.6563802 12.57024,22.6126574 12.33072,22.6126574 L9.07536,22.6126574 L9.07536,22.6126574 C8.89488,22.6126574 8.82048,22.6126574 8.82048,22.3750337 L8.82048,19.7616475 C8.82048,19.5976871 8.82048,19.5544396 9.06048,19.5544396 L12.28512,19.5544396 C12.50976,19.5544396 12.57024,19.5544396 12.57024,19.2721426 L12.57024,11.2670733 L12.57024,11.2670733 C12.57024,11.0294495 12.57024,10.9695683 12.87072,10.9695683 L24.12,10.9695683 L24.12,10.9695683 Z M32.51904,28.9529347 L15.88464,28.9529347 C15.66048,28.9529347 15.58512,28.9529347 15.58512,29.2494891 L15.58512,34.4040238 L15.58512,34.4040238 C15.58512,34.6411723 15.58512,34.7015287 15.88464,34.7015287 L23.56464,34.7015287 L23.56464,34.7015287 C23.93184,34.7286178 24.29904,34.7029545 24.65856,34.6273901 C25.7736,34.548499 26.86992,34.3089743 27.91536,33.9140436 C28.2912,33.7719446 28.66272,33.6136871 29.00928,33.4093307 L29.11392,33.4093307 C30.9144,32.482598 32.37696,31.0254891 33.29904,29.2380832 C33.30432,29.2266772 33.40416,29.0132911 33.28608,28.9543604 L33.28608,28.9529347 C33.0312,28.924895 32.77392,28.924895 32.51904,28.9529347 Z M34.01952,22.596499 L15.86928,22.596499 L15.86928,22.596499 C15.64512,22.596499 15.58512,22.6701624 15.58512,22.878796 L15.58512,25.5221228 C15.58512,25.8349149 15.58512,25.8609809 15.8616722,25.863153 L34.00416,25.8633505 C34.19904,25.8633505 34.29072,25.8633505 34.30464,25.6109941 C34.356,24.6904396 34.37904,23.7679842 34.30464,22.8483802 C34.30464,22.6701624 34.21536,22.596499 34.01952,22.596499 Z M23.89296,13.7892119 C21.20832,13.8120238 18.52368,13.8120238 15.83856,13.7892119 C15.61344,13.7873109 15.58368,13.8780832 15.58368,14.0715089 L15.58368,19.3434297 C15.58368,19.5658455 15.58368,19.6257267 15.8688,19.6257267 L33.17808,19.6257267 L33.17808,19.6257267 C33.18528,19.624301 33.32784,19.5962614 33.35856,19.5069149 L33.28608,19.5069149 C33.312,19.4394297 33.312,19.3662416 33.28608,19.2997069 C33.13392,18.9713109 32.95344,18.6581228 32.74416,18.3639446 C32.4288,17.8611327 32.0568,17.3982416 31.63392,16.9824 C31.43424,16.7309941 31.20288,16.5057267 30.94368,16.314202 C29.64528,15.2201822 28.1016,14.446004 26.4432,14.0567762 C25.608,13.8609743 24.7512,13.7820832 23.89296,13.7892119 Z"/>
  </g>
</svg>
