<svg xmlns="http://www.w3.org/2000/svg" width="48" height="48" viewBox="0 0 48 48">
  <g fill="none" fill-rule="evenodd">
    <path fill="#00DCFA" d="M48,24 C48,20.85888 47.37504,17.71776 46.17312,14.81568 C44.9712,11.9136 43.19184,9.25056 40.9704,7.0296 C38.74944,4.80816 36.0864,3.0288 33.18432,1.82688 C30.28224,0.62496 27.14112,0 24,0 C20.85888,0 17.71776,0.62496 14.81568,1.82688 C11.9136,3.0288 9.25056,4.80816 7.0296,7.0296 C4.80816,9.25056 3.0288,11.9136 1.82688,14.81568 C0.62496,17.71776 0,20.85888 0,24 C0,27.14112 0.62496,30.28224 1.82688,33.18432 C3.0288,36.0864 4.80816,38.74944 7.0296,40.9704 C9.25056,43.19184 11.9136,44.9712 14.81568,46.17312 C17.71776,47.37504 20.85888,48 24,48 C27.14112,48 30.28224,47.37504 33.18432,46.17312 C36.0864,44.9712 38.74944,43.19184 40.9704,40.9704 C43.19184,38.74944 44.9712,36.0864 46.17312,33.18432 C47.37504,30.28224 48,27.14112 48,24 Z"/>
    <path fill="#FFF" d="M29.07024,7.5 C35.38176,7.50807921 40.5,12.5732673 40.5,18.8246733 C40.5,24.5632871 36.03984,29.4526337 30.28992,30.0642772 C29.688,35.7572673 24.73392,40.180396 18.92976,40.1732759 C12.61776,40.1651881 7.5,35.1 7.5,28.8485941 C7.5,23.1099802 11.96016,18.2206337 17.71008,17.6089901 C18.32784,11.916 23.26608,7.5 29.07024,7.5 Z M27.68784,30.1417426 L10.17984,30.1417426 C10.82016,34.4403564 14.54592,37.6207129 18.92976,37.6207129 C23.31984,37.6207129 27.04608,34.4403564 27.68784,30.1417426 L27.68784,30.1417426 Z M17.63184,20.1853069 C13.78176,20.7651089 10.75776,23.7672475 10.17984,27.5891881 L10.183,27.565 L17.63184,27.5654257 Z M27.79008,20.0840792 L20.20992,20.0840792 L20.20992,27.5654257 L27.79008,27.5654257 L27.79008,20.0840792 Z M37.82016,20.0840792 L30.36816,20.0840792 L30.36816,27.4722772 C34.21008,26.892 37.23408,23.8979406 37.82016,20.0840792 L37.82016,20.0840792 Z M29.07024,10.0525545 C24.68016,10.0525545 20.95392,13.2324356 20.31216,17.5315248 L20.31216,17.5315248 L37.82016,17.5315248 C37.17984,13.2324356 33.45408,10.0525545 29.07024,10.0525545 Z"/>
  </g>
</svg>
