<svg xmlns="http://www.w3.org/2000/svg" width="48" height="48" viewBox="0 0 48 48">
  <g fill="none">
    <circle cx="24" cy="24" r="24" fill="#1AAB9B"/>
    <path fill="#FFF" d="M12.18712,31.2 L12.18712,19.9044 L20.75328,26.3508 L20.75328,31.2 L22.94032,31.2 L22.94032,25.89608 C22.94032,25.49528 22.752,25.11768 22.43168,24.87672 L12.04296,17.05872 C11.20216,16.426 10,17.02584 10,18.07816 L10,31.2 L12.18712,31.2 Z M35.8784,31.2 L35.8784,19.9044 L27.31224,26.3508 L27.31224,31.2 L25.1252,31.2 L25.1252,25.89608 C25.1252,25.49528 25.31352,25.11768 25.63384,24.87672 L36.02256,17.05872 C36.86336,16.426 38.06552,17.02584 38.06552,18.07816 L38.06552,31.2 L35.8784,31.2 Z"/>
  </g>
</svg>
