<svg xmlns="http://www.w3.org/2000/svg" width="48" height="48" viewBox="0 0 48 48">
  <g fill="none">
    <path fill="#000" d="M24,0 C10.7454915,0 0,10.7454915 0,24 C0,37.2545085 10.7454915,48 24,48 C37.2545085,48 48,37.2545085 48,24 L48,23.9853559 C47.992678,10.7389831 37.2496271,0 24,0 Z"/>
    <path fill="#FFF" d="M11.2476404,15.0377561 C11.2476404,13.9829268 11.1833708,12.9629268 11.0844944,11.9080976 L15.7613483,11.9080976 L15.9244944,14.0476098 C16.4485393,13.3261463 17.7240449,11.544878 21.0265169,11.544878 C24.8233708,11.544878 25.9011236,13.8834146 26.2274157,14.6745366 C27.6017978,12.0076098 29.8265169,11.5797073 31.527191,11.5797073 C34.8642697,11.5797073 36.2089888,13.5898537 36.5649438,14.2466341 C37.4498876,15.6945366 37.3806742,17.7046829 37.3806742,19.1525854 L37.3806742,28.2629268 L32.5060674,28.2629268 L32.5060674,18.7595122 C32.5060674,16.9782439 32.2440449,15.0029268 29.7226966,15.0029268 C26.825618,15.0029268 26.7613483,17.7395122 26.7613483,20.2074146 L26.7613483,28.2629268 L21.8867416,28.2629268 L21.8867416,18.66 C21.8867416,17.3762927 21.8521348,15.0029268 19.1725843,15.0029268 C16.127191,15.0029268 16.127191,17.64 16.127191,18.7595122 L16.127191,28.2629268 L11.2476404,28.2629268 L11.2476404,15.0377561 Z"/>
    <polygon fill="#FFF" points="11.084 31.92 37.396 31.92 37.396 35.975 11.084 35.975"/>
  </g>
</svg>
