<svg xmlns="http://www.w3.org/2000/svg" width="48" height="48" viewBox="0 0 48 48">
  <defs>
    <linearGradient id="pickle_b-a" x1="50%" x2="50%" y1="-29.386%" y2="100%">
      <stop offset="0%" stop-color="#08021E"/>
      <stop offset="100%" stop-color="#074007"/>
    </linearGradient>
  </defs>
  <g fill="none" fill-rule="evenodd">
    <path fill="url(#pickle_b-a)" fill-rule="nonzero" d="M48,24 C48,20.85888 47.37504,17.71776 46.17312,14.81568 C44.9712,11.9136 43.19184,9.25056 40.9704,7.0296 C38.74944,4.80816 36.0864,3.0288 33.18432,1.82688 C30.28224,0.62496 27.14112,0 24,0 C20.85888,0 17.71776,0.62496 14.81568,1.82688 C11.9136,3.0288 9.25056,4.80816 7.0296,7.0296 C4.80816,9.25056 3.0288,11.9136 1.82688,14.81568 C0.62496,17.71776 0,20.85888 0,24 C0,27.14112 0.62496,30.28224 1.82688,33.18432 C3.0288,36.0864 4.80816,38.74944 7.0296,40.9704 C9.25056,43.19184 11.9136,44.9712 14.81568,46.17312 C17.71776,47.37504 20.85888,48 24,48 C27.14112,48 30.28224,47.37504 33.18432,46.17312 C36.0864,44.9712 38.74944,43.19184 40.9704,40.9704 C43.19184,38.74944 44.9712,36.0864 46.17312,33.18432 C47.37504,30.28224 48,27.14112 48,24 Z"/>
    <path fill="#13A10E" d="M29.6736,11.1648 C28.33104,12.68064 26.95152,14.16384 25.53504,15.6144 C22.70208,18.51552 19.71792,21.25296 16.58304,23.82672 C15.01584,25.1136 13.4112,26.34912 11.7696,27.53376 C10.82064,28.21872 10.06848,29.1744 9.62736,30.25728 C9.18576,31.34016 9.05568,32.55024 9.25584,33.70272 C9.456,34.8552 9.98688,35.9496 10.76736,36.82032 C11.54832,37.69152 12.57888,38.33808 13.70256,38.66256 C14.82624,38.98704 16.04352,38.98896 16.99584,38.77536 C17.94864,38.56176 18.63648,38.13264 21.92736,35.44656 C25.18176,32.79024 30.98208,27.92688 37.5648,17.48928 C38.15328,16.46352 38.376,15.18048 38.15472,13.99008 C37.93296,12.80016 37.26768,11.7024 36.32688,10.9488 C35.38608,10.19472 34.17024,9.78384 32.96064,9.82704 C31.75056,9.87024 30.54672,10.36656 29.6736,11.1648 Z"/>
    <path fill="#107C10" d="M9.16407406,32.59968 C9.16224,32.96928 9.19248,33.33888 9.25584,33.70272 C9.456,34.8552 9.98688,35.9496 10.76736,36.82032 C11.54832,37.69152 12.57888,38.33808 13.70256,38.66256 C14.82624,38.98704 16.04352,38.98896 16.99584,38.77536 C17.94864,38.56176 18.63648,38.13264 21.92736,35.44656 C25.18176,32.79024 30.98208,27.92688 37.5648,17.48928 C37.74192,17.18016 37.8864,16.85232 37.99776,16.50576 C38.22048,15.81216 38.29152,15.10368 38.21184,14.37984 C38.17152,14.01792 38.09568,13.668 37.98336,13.33008 C31.10784,23.06016 25.63824,28.068 22.08528,31.0176 C18.53184,33.9672 16.89504,34.85856 15.44448,35.18256 C13.99392,35.50656 12.73008,35.26368 11.1864,34.34016 C10.536,33.95088 9.83664,33.44112 9.16407406,32.59968 Z"/>
    <path fill="#16C50C" d="M12.8232 29.4873467C12.6 29.4864 12.3768 29.53728 12.15456 29.64 11.7096 29.84496 11.42112 30.18336 11.28912 30.65472 11.22288 30.8904 11.208 31.1184 11.24352 31.3392 11.26272 31.45632 11.33232 31.57056 11.4312 31.64208 11.5296 31.7136 11.65776 31.74336 11.77776 31.72368 11.89776 31.70448 12.0096 31.63584 12.08064 31.53648 12.1512 31.43712 12.18096 31.30704 12.16224 31.18992 12.14736 31.09776 12.1536 31.00272 12.18096 30.90432 12.23616 30.708 12.35664 30.56688 12.54192 30.48144 12.63456 30.43872 12.72768 30.4176 12.8208 30.4176 12.93936 30.41808 13.0632 30.36816 13.15008 30.28224 13.23696 30.1968 13.28688 30.07536 13.2873635 29.95392 13.28784 29.83248 13.2384 29.71056 13.152 29.62464 13.0656 29.53824 12.94224 29.4873467 12.8232 29.4873467zM17.00976 29.4379166C16.78608 29.43744 16.56336 29.48832 16.34112 29.59056 15.89616 29.79552 15.60768 30.13392 15.47568 30.60528 15.40944 30.84096 15.39408 31.06944 15.43008 31.29024 15.44928 31.40736 15.51888 31.52112 15.61728 31.59264 15.71616 31.66464 15.84432 31.69392 15.96384 31.67472 16.08384 31.65504 16.19616 31.5864 16.26672 31.48704 16.33776 31.38768 16.36752 31.2576 16.34832 31.14048 16.33344 31.0488 16.33968 30.95328 16.36752 30.85536 16.42272 30.65856 16.54272 30.51744 16.72848 30.432 16.82112 30.38928 16.91376 30.36816 17.00688 30.36864 17.12592 30.36864 17.24976 30.31872 17.33664 30.23328 17.42352 30.14736 17.47344 30.02592 17.47392 29.90448 17.47392 29.78304 17.42496 29.6616 17.33856 29.5752 17.25216 29.4888 17.12832 29.4384 17.00976 29.4379166zM18.14256 25.2513566C17.91888 25.25088 17.69616 25.30176 17.47392 25.40448 17.02896 25.60944 16.74048 25.94736 16.60848 26.4192 16.54224 26.65488 16.52688 26.88288 16.56288 27.10368 16.58208 27.2208 16.65168 27.33456 16.75008 27.40656 16.84896 27.47808 16.97712 27.50784 17.09664 27.48816 17.21664 27.46848 17.32896 27.39984 17.39952 27.30096 17.47056 27.2016 17.50032 27.07152 17.48112 26.9544 17.46624 26.86224 17.47248 26.7672 17.50032 26.6688 17.55552 26.472 17.67552 26.33136 17.8608 26.24592 17.95392 26.2032 18.04656 26.1816 18.13968 26.18208 18.25872 26.18256 18.38256 26.13264 18.46944 26.04672 18.55632 25.96128 18.60624 25.83984 18.60672 25.71792 18.60672 25.59648 18.55776 25.47504 18.47136 25.38864 18.38496 25.30272 18.26112 25.25184 18.14256 25.2513566zM22.18128 25.3007966C21.9576 25.30032 21.73488 25.3512 21.51216 25.45344 21.06768 25.6584 20.7792 25.9968 20.64672 26.46816 20.58096 26.70384 20.5656 26.93232 20.6016 27.15312 20.6208 27.27024 20.6904 27.384 20.7888 27.45552 20.88768 27.52752 21.01536 27.5568 21.13536 27.53712 21.25536 27.51792 21.3672 27.44928 21.43824 27.34992 21.50928 27.25056 21.53904 27.12048 21.51984 27.00336 21.50496 26.9112 21.5112 26.81616 21.53904 26.71824 21.59424 26.52144 21.71424 26.38032 21.89952 26.29488 21.99216 26.25216 22.08528 26.23104 22.1784 26.23152 22.29744 26.23152 22.4208 26.1816 22.50816 26.09616 22.59504 26.01024 22.6449635 25.8888 22.6449635 25.76736 22.64544 25.64592 22.596 25.524 22.51008 25.43808 22.42368 25.35168 22.29984 25.30128 22.18128 25.3007966zM23.21568 21.1636766C22.992 21.1632 22.76928 21.21408 22.54656 21.31632 22.10208 21.52128 21.8136 21.85968 21.68112 22.33104 21.61488 22.56672 21.6 22.7952 21.636 23.01552 21.65472 23.13312 21.72432 23.24688 21.8232 23.3184 21.92208 23.3904 22.04976 23.41968 22.16976 23.4 22.28976 23.3808 22.4016 23.31216 22.47264 23.2128 22.54368 23.11344 22.57344 22.98336 22.55424 22.86624 22.53936 22.77408 22.5456 22.67904 22.57296 22.58064 22.62816 22.38432 22.74864 22.2432 22.93392 22.15776 23.02656 22.11504 23.11968 22.09392 23.2128 22.09392 23.33136 22.0944 23.4552 22.04448 23.54208 21.95904 23.62896 21.87312 23.67888 21.75168 23.6793635 21.63024 23.67984 21.5088 23.6304 21.38688 23.544 21.30096 23.4576 21.21456 23.33424 21.16416 23.21568 21.1636766zM27.40176 21.2131067C27.17856 21.21216 26.95536 21.26304 26.73312 21.36576 26.28816 21.57072 25.99968 21.90912 25.86768 22.38048 25.80144 22.61616 25.78656 22.84416 25.82208 23.06496 25.84128 23.18208 25.91088 23.29632 26.00976 23.36784 26.10816 23.43936 26.23632 23.46912 26.35632 23.44944 26.47632 23.42976 26.58816 23.3616 26.6592 23.26224 26.72976 23.16288 26.75952 23.0328 26.7408 22.91568 26.72592 22.82352 26.73216 22.72848 26.75952 22.63008 26.81472 22.43376 26.9352 22.29264 27.12048 22.2072 27.21312 22.16448 27.30624 22.14288 27.39936 22.14336 27.51792 22.14384 27.64176 22.09392 27.72864 22.008 27.81552 21.92256 27.86544 21.80112 27.8659235 21.67968 27.8664 21.55776 27.81696 21.43632 27.73056 21.34992 27.64416 21.264 27.5208 21.2131067 27.40176 21.2131067zM27.40176 17.0265468C27.17856 17.0256 26.95536 17.07696 26.73312 17.1792 26.28816 17.38416 25.99968 17.72256 25.86768 18.19392 25.80144 18.4296 25.78656 18.65808 25.82208 18.8784 25.84128 18.99552 25.91088 19.10976 26.00976 19.18128 26.10816 19.25328 26.23632 19.28256 26.35632 19.26288 26.47632 19.24368 26.58816 19.17504 26.6592 19.07568 26.72976 18.97632 26.75952 18.84624 26.7408 18.72912 26.72592 18.63696 26.73216 18.54192 26.75952 18.44352 26.81472 18.2472 26.9352 18.10608 27.12048 18.02064 27.21312 17.97792 27.30624 17.9568 27.39936 17.9568 27.51792 17.95728 27.64176 17.90736 27.72864 17.82144 27.81552 17.736 27.86544 17.61456 27.8659235 17.49312 27.8664 17.37168 27.81696 17.24976 27.73056 17.16384 27.64416 17.07744 27.5208 17.02704 27.40176 17.0265468zM32.57328 15.9427166C32.35008 15.94224 32.12688 15.99312 31.90464 16.09584 31.45968 16.3008 31.1712 16.63872 31.0392 17.11056 30.97296 17.34624 30.9576 17.57424 30.9936 17.79504 31.0128 17.91216 31.0824 18.02592 31.1808 18.09792 31.27968 18.16944 31.40784 18.1992 31.52784 18.17952 31.64736 18.15984 31.75968 18.09168 31.83024 17.99232 31.90128 17.89296 31.93104 17.76288 31.91232 17.64576 31.89696 17.5536 31.9032 17.45856 31.93104 17.36016 31.98624 17.16384 32.10624 17.02272 32.292 16.93728 32.38464 16.89456 32.47728 16.87296 32.57088 16.87344 32.68944 16.87392 32.81328 16.824 32.90016 16.73808 32.98704 16.65264 33.03696 16.5312 33.03744 16.40976 33.03744 16.28784 32.98848 16.1664 32.90208 16.08 32.81568 15.99408 32.69232 15.9432 32.57328 15.9427166zM32.62272 11.9044667C32.39904 11.90352 32.17632 11.9544 31.9536 12.05712 31.50912 12.26208 31.22064 12.60048 31.08816 13.07184 31.02192 13.30752 31.00704 13.53552 31.04304 13.75632 31.06224 13.87344 31.13136 13.98768 31.23024 14.0592 31.32912 14.13072 31.4568 14.16048 31.5768 14.1408 31.6968 14.12112 31.80864 14.05296 31.87968 13.9536 31.95072 13.85424 31.98048 13.72416 31.96128 13.60704 31.9464 13.51488 31.95264 13.41984 31.98048 13.32144 32.0352 13.12512 32.15568 12.984 32.34096 12.89856 32.4336 12.85584 32.52672 12.83472 32.61984 12.83472 32.7384 12.8352 32.86224 12.78528 32.94912 12.69936 33.036 12.61392 33.0864035 12.49248 33.0864035 12.37104 33.08688 12.2496 33.03744 12.12768 32.95104 12.04176 32.86464 11.95536 32.74128 11.9044667 32.62272 11.9044667z"/>
    <path fill="#13A00E" d="M36.0672 18.48288C36.0672 18.36144 36.0168 18.24 35.93088 18.15408 35.84496 18.06816 35.72352 18.01776 35.60208 18.01776 35.48064 18.01776 35.35872 18.06816 35.2728 18.15408 35.18688 18.24 35.13648 18.36144 35.13648 18.48288 35.13648 18.60432 35.18688 18.72624 35.2728 18.81216 35.35872 18.89808 35.48064 18.94848 35.60208 18.94848 35.72352 18.94848 35.84496 18.89808 35.93088 18.81216 36.0168 18.72624 36.0672 18.60432 36.0672 18.48288zM18.97008 36.7646533C19.19328 36.7656 19.41648 36.71472 19.63872 36.612 20.08368 36.40704 20.37216 36.06864 20.50416 35.59728 20.5704 35.3616 20.58576 35.1336 20.54976 34.9128 20.53056 34.79568 20.46096 34.68144 20.36208 34.60992 20.26368 34.5384 20.13552 34.50864 20.01552 34.52832 19.89552 34.548 19.78368 34.61616 19.71264 34.71552 19.64208 34.81488 19.61232 34.94496 19.63104 35.06208 19.6464 35.15424 19.63968 35.24928 19.61232 35.34768 19.55712 35.544 19.43664 35.68512 19.25136 35.77056 19.15872 35.81328 19.0656 35.8344 18.97248 35.8344 18.85392 35.83392 18.73008 35.88384 18.6432 35.96976 18.55632 36.0552 18.5064 36.17664 18.5059165 36.29808 18.50544 36.41952 18.55488 36.54144 18.64128 36.62736 18.72768 36.71376 18.85104 36.7646533 18.97008 36.7646533zM23.11968 32.7139234C23.34288 32.7144 23.56608 32.66352 23.78832 32.56128 24.23328 32.35632 24.52176 32.01792 24.65376 31.54656 24.72 31.31088 24.73536 31.0824 24.69936 30.86208 24.68016 30.74496 24.61056 30.63072 24.51168 30.5592 24.41328 30.4872 24.28512 30.45792 24.16512 30.4776 24.0456 30.4968 23.93328 30.56544 23.86272 30.6648 23.79168 30.76416 23.76192 30.89424 23.78064 31.01136 23.796 31.10352 23.78928 31.19856 23.76192 31.29696 23.70672 31.49328 23.58672 31.6344 23.40096 31.71984 23.30832 31.76256 23.21568 31.78368 23.12208 31.78368 23.00352 31.7832 22.87968 31.83312 22.7928 31.91856 22.70592 32.00448 22.656 32.12592 22.65552 32.24736 22.65552 32.3688 22.70448 32.49072 22.79088 32.57664 22.87728 32.66304 23.00064 32.71344 23.11968 32.7139234zM27.26928 28.5974434C27.49296 28.59792 27.71568 28.54704 27.93792 28.44432 28.38288 28.23936 28.67136 27.90144 28.80336 27.4296 28.8696 27.19392 28.88496 26.96592 28.84896 26.74512 28.82976 26.628 28.76016 26.51424 28.66176 26.44224 28.56288 26.37072 28.43472 26.34096 28.31472 26.36064 28.1952 26.38032 28.08288 26.44896 28.01232 26.54784 27.94128 26.6472 27.91152 26.77728 27.93024 26.89488 27.9456 26.98656 27.93936 27.0816 27.91152 27.18 27.85632 27.3768 27.73632 27.51744 27.55056 27.60288 27.45792 27.6456 27.36528 27.6672 27.27168 27.66672 27.15312 27.66624 27.02928 27.71664 26.9424 27.80208 26.85552 27.88752 26.8056 28.00896 26.80512 28.13088 26.80512 28.25232 26.85408 28.37376 26.94048 28.46016 27.02688 28.54608 27.15024 28.59696 27.26928 28.5974434zM31.27056 24.3984034C31.49424 24.39888 31.71696 24.348 31.93968 24.24528 32.38416 24.04032 32.67264 23.7024 32.80512 23.23056 32.87088 22.99488 32.88624 22.76688 32.85024 22.54608 32.83104 22.42896 32.76192 22.3152 32.66304 22.2432 32.56416 22.17168 32.43648 22.14192 32.31648 22.1616 32.19648 22.18128 32.08464 22.24992 32.0136 22.3488 31.94256 22.44816 31.9128 22.57824 31.932 22.69584 31.94688 22.78752 31.94064 22.88256 31.9128 22.98096 31.85808 23.17776 31.7376 23.3184 31.55232 23.40384 31.45968 23.44656 31.36656 23.46816 31.27344 23.46768 31.1544 23.4672 31.03104 23.5176 30.94416 23.60304 30.85728 23.68896 30.8068765 23.80992 30.8068765 23.93184 30.8064 24.05328 30.85584 24.17472 30.94224 24.26112 31.02864 24.34704 31.152 24.39792 31.27056 24.3984034z"/>
  </g>
</svg>
