<svg xmlns="http://www.w3.org/2000/svg" width="48" height="48" viewBox="0 0 48 48">
  <g fill="none">
    <circle cx="24" cy="24" r="24" fill="#001D3C"/>
    <g fill="#FFF" transform="translate(8.64 6.72)">
      <polygon points="4.755 7.313 7.313 5.844 7.657 6.436 17.086 .998 16.397 .602 15.704 .198 15.36 0 0 8.873 0 9.27 4.41 6.718"/>
      <polygon points="4.755 12.899 12.145 8.629 12.491 9.23 21.919 3.789 21.229 3.387 20.538 2.991 20.192 2.796 0 14.454 0 14.85 4.41 12.299"/>
      <polygon points="4.755 15.692 14.561 10.03 14.908 10.625 24.333 5.178 23.645 4.788 22.956 4.384 22.608 4.186 0 17.239 0 17.641 4.41 15.094"/>
      <polygon points="4.755 18.48 17.047 11.385 17.395 11.979 26.751 6.579 26.063 6.175 25.37 5.778 25.026 5.58 0 20.034 0 20.43 4.41 17.879"/>
      <polygon points="4.755 21.266 19.464 12.776 19.81 13.377 29.167 7.969 28.477 7.576 27.788 7.173 27.441 6.975 0 22.819 0 23.215 4.41 20.67"/>
      <polygon points="30.204 8.571 29.858 8.37 0 25.614 0 26.011 4.41 23.465 4.755 24.06 19.464 15.572 19.81 16.166 30.72 9.87 30.72 9.072 30.72 8.873"/>
      <polygon points="1.891 27.703 4.365 26.276 4.709 26.872 19.394 18.395 19.738 18.997 30.72 12.655 30.72 11.856 30.72 11.056 30.72 10.66 1.553 27.505"/>
      <polyline points="19.394 21.191 19.738 21.793 30.72 15.451 30.72 14.652 30.72 13.852 30.72 13.455 3.969 28.9 4.316 29.098 6.826 27.645 7.173 28.247"/>
      <polygon points="6.731 30.496 9.244 29.04 9.588 29.64 19.394 23.975 19.738 24.578 30.72 18.237 30.72 17.437 30.72 16.644 30.72 16.243 6.381 30.291"/>
      <polygon points="9.145 31.89 11.658 30.44 12.005 31.035 19.394 26.771 19.738 27.365 30.72 21.025 30.72 20.232 30.72 19.432 30.72 19.036 8.801 31.692"/>
      <polygon points="11.219 33.085 11.565 33.284 14.082 31.832 14.422 32.433 19.394 29.557 19.738 30.158 30.72 23.817 30.72 23.017 30.72 22.218 30.72 21.82"/>
      <polygon points="13.979 34.684 16.49 33.225 16.836 33.827 19.394 32.345 19.738 32.946 30.72 26.611 30.72 25.812 30.72 25.012 30.72 24.616 13.634 34.486"/>
      <polygon points="19.504 2.392 18.811 1.995 18.811 1.995 18.123 1.599 17.778 1.395 0 11.658 0 12.055 4.41 9.512 4.755 10.104 9.727 7.235 10.082 7.837"/>
    </g>
  </g>
</svg>
