<svg xmlns="http://www.w3.org/2000/svg" width="48" height="48" viewBox="0 0 48 48">
  <defs>
    <linearGradient id="snx-a" x1="50%" x2="50%" y1="-29.386%" y2="100%">
      <stop offset="0%" stop-color="#08021E"/>
      <stop offset="100%" stop-color="#1F0777"/>
    </linearGradient>
  </defs>
  <g fill="none">
    <circle cx="24" cy="24" r="24" fill="url(#snx-a)"/>
    <path fill="#00D1FF" d="M16.0933,18.0329 C15.8794,17.7881 15.616,17.6654 15.3025,17.6654 L8.89209,17.6654 C8.83516,17.6654 8.78857,17.6474 8.75349,17.6114 C8.71783,17.5759 8.7,17.5358 8.7,17.4928 L8.7,13.1727 C8.7,13.1296 8.71783,13.0901 8.75349,13.0541 C8.78857,13.018 8.83516,13 8.89209,13 L15.666,13 C17.3753,13 18.85,13.6988 20.0894,15.0952 L21.7348,17.1038 L18.5296,21.0135 L16.0933,18.0329 Z M27.9319,15.0737 C29.1713,13.6912 30.6529,13 32.3765,13 L39.1292,13 C39.1861,13 39.2287,13.0145 39.2574,13.043 C39.2856,13.0721 39.3,13.1151 39.3,13.1727 L39.3,17.4928 C39.3,17.5358 39.2856,17.5759 39.2574,17.6114 C39.2287,17.6474 39.1861,17.6654 39.1292,17.6654 L32.7187,17.6654 C32.4053,17.6654 32.1419,17.7881 31.9279,18.0329 L27.2055,23.7785 L31.9492,29.5671 C32.1632,29.7979 32.4191,29.913 32.7187,29.913 L39.1292,29.913 C39.1861,29.913 39.2287,29.9311 39.2574,29.9671 C39.2856,30.0032 39.3,30.0502 39.3,30.1072 L39.3,34.4273 C39.3,34.4704 39.2856,34.5105 39.2574,34.5459 C39.2287,34.582 39.1861,34.6 39.1292,34.6 L32.3765,34.6 C30.6529,34.6 29.1782,33.9018 27.9532,32.5048 L24.0216,27.7097 L20.0894,32.5048 C18.85,33.9018 17.3684,34.6 15.6447,34.6 L8.89209,34.6 C8.83516,34.6 8.79202,34.582 8.76384,34.5459 C8.73508,34.5099 8.72128,34.4634 8.72128,34.4052 L8.72128,30.0851 C8.72128,30.0421 8.73508,30.0026 8.76384,29.9665 C8.79202,29.9305 8.83516,29.9125 8.89209,29.9125 L15.3025,29.9125 C15.6016,29.9125 15.865,29.7904 16.0933,29.545 L20.7301,23.886 L27.9319,15.0737 Z"/>
  </g>
</svg>
