<svg xmlns="http://www.w3.org/2000/svg" width="48" height="48" viewBox="0 0 48 48">
  <g fill="none" fill-rule="evenodd">
    <path fill="#002868" d="M48,24 C48,20.85888 47.37504,17.71776 46.17312,14.81568 C44.9712,11.9136 43.19184,9.25056 40.9704,7.0296 C38.74944,4.80816 36.0864,3.0288 33.18432,1.82688 C30.28224,0.62496 27.14112,0 24,0 C20.85888,0 17.71776,0.62496 14.81568,1.82688 C11.9136,3.0288 9.25056,4.80816 7.0296,7.0296 C4.80816,9.25056 3.0288,11.9136 1.82688,14.81568 C0.62496,17.71776 0,20.85888 0,24 C0,27.14112 0.62496,30.28224 1.82688,33.18432 C3.0288,36.0864 4.80816,38.74944 7.0296,40.9704 C9.25056,43.19184 11.9136,44.9712 14.81568,46.17312 C17.71776,47.37504 20.85888,48 24,48 C27.14112,48 30.28224,47.37504 33.18432,46.17312 C36.0864,44.9712 38.74944,43.19184 40.9704,40.9704 C43.19184,38.74944 44.9712,36.0864 46.17312,33.18432 C47.37504,30.28224 48,27.14112 48,24 Z"/>
    <path fill="#FFF" d="M13.5600457 37.5628922C13.46976 37.5628922 13.3966171 37.4808554 13.3966171 37.3914636 13.3966171 35.8712373 13.3966171 34.3504453 13.3966171 32.830219 13.3966171 32.7408272 13.3234743 32.6593562 13.23376 32.6593562 12.6914743 32.6593562 12.1491886 32.6593562 11.6069029 32.6593562 11.5154743 32.6593562 11.43376 32.5869375 11.43376 32.4975457 11.43376 32.2039106 11.43376 31.9102755 11.43376 31.6160747 11.43376 31.5266829 11.5166171 31.4452119 11.6069029 31.4452119 13.2754743 31.4452119 14.9440457 31.4452119 16.6126171 31.4452119 16.7029029 31.4452119 16.7851886 31.5255513 16.7851886 31.6160747 16.7851886 31.9102755 16.7851886 32.2039106 16.7851886 32.4975457 16.7851886 32.5869375 16.7029029 32.6593562 16.6126171 32.6593562 16.07376 32.6593562 15.5343314 32.6593562 14.9954743 32.6593562 14.9051886 32.6593562 14.8229029 32.7402614 14.8229029 32.830219 14.8229029 34.3504453 14.8229029 35.8712373 14.8229029 37.3914636 14.8229029 37.4808554 14.74976 37.5628922 14.6594743 37.5628922 14.2931886 37.5628922 13.9269029 37.5628922 13.5600457 37.5628922zM21.78176 31.6160747C21.78176 31.5266829 21.8549029 31.4452119 21.9451886 31.4452119 22.3086171 31.4452119 22.6720457 31.4452119 23.0354743 31.4452119 23.12576 31.4452119 23.2080457 31.5255513 23.2080457 31.6160747 23.2080457 32.6536984 23.2080457 33.6913222 23.2080457 34.728946 23.2080457 36.5739248 22.1543314 37.6437975 20.4823314 37.6437975 18.8200457 37.6437975 17.7749029 36.5739248 17.7749029 34.728946 17.7749029 33.6913222 17.7749029 32.6536984 17.7749029 31.6160747 17.7749029 31.5266829 17.8486171 31.4452119 17.9383314 31.4452119 18.30176 31.4452119 18.6651886 31.4452119 19.0286171 31.4452119 19.1194743 31.4452119 19.2011886 31.5255513 19.2011886 31.6160747 19.2011886 32.6684085 19.2011886 33.7207423 19.2011886 34.7730761 19.2011886 35.6822699 19.6731886 36.328946 20.4914743 36.328946 21.30976 36.328946 21.78176 35.6822699 21.78176 34.7730761 21.78176 33.7207423 21.78176 32.6684085 21.78176 31.6160747zM28.2149029 33.442383C28.06976 33.442383 28.0240457 33.388069 27.9691886 33.2805726 27.7783314 32.8398371 27.3600457 32.560912 26.7246171 32.560912 26.1520457 32.560912 25.6709029 32.7589318 25.6709029 33.1368668 25.6709029 33.551011 26.1166171 33.7218738 27.0971886 33.8384226 28.5869029 34.0155089 29.4411886 34.459639 29.4411886 35.6285216 29.4411886 36.9416758 28.2771886 37.6341793 26.7886171 37.6341793 25.4983314 37.6341793 24.3903314 37.0135287 24.2171886 35.7099926 24.2006171 35.5838257 24.2629029 35.5391298 24.3903314 35.5391298 24.7234743 35.5391298 25.0566171 35.5391298 25.38976 35.5391298 25.5166171 35.5391298 25.5903314 35.5934438 25.6263314 35.691888 25.7829029 36.1167819 26.2263314 36.4568102 26.8983314 36.4568102 27.4891886 36.4568102 28.0069029 36.2406857 28.0069029 35.7824113 28.0069029 35.2336136 27.4623314 35.1351694 26.3714743 34.9993844 25.1171886 34.8432317 24.24576 34.4777437 24.24576 33.3343208 24.24576 32.1920294 25.2366171 31.3739248 26.7903314 31.3739248 28.1886171 31.3739248 29.1611886 32.1207423 29.36176 33.2364424 29.3840457 33.3631751 29.3520457 33.4435146 29.2160457 33.4435146 28.8823314 33.4435146 28.5486171 33.4435146 28.2149029 33.4435146L28.2149029 33.442383zM33.1474743 31.4452119C34.9829029 31.4452119 36.4091886 32.6955655 36.4091886 34.5218738 36.4091886 36.3210252 35.0011886 37.5628922 33.1474743 37.5628922L30.6766171 37.5628922 30.6766171 37.5628922C30.5863314 37.5628922 30.5131886 37.4808554 30.5131886 37.3914636L30.5131886 31.6160747 30.5131886 31.6160747C30.5131886 31.5266829 30.5863314 31.4452119 30.6766171 31.4452119L33.1474743 31.4452119 33.1474743 31.4452119zM33.1383314 32.6582246L32.1120457 32.6582246 32.1120457 32.6582246C32.02176 32.6582246 31.9480457 32.7385641 31.9480457 32.8290874L31.9480457 36.1841086 31.9480457 36.1841086C31.9480457 36.2735004 32.02176 36.3459191 32.1120457 36.3459191L33.1474743 36.3459191 33.1474743 36.3459191 33.1474743 36.3476164C34.1383314 36.3476164 34.90976 35.5730761 34.90976 34.5026376 34.90976 33.4327649 34.1371886 32.6582246 33.1383314 32.6582246zM21.9395961 16.0730011C19.7867845 16.0730011 17.6339729 16.0730011 15.4811613 16.0730011 15.2429226 16.0730011 15.048 15.8792936 15.048 15.6441285 15.048 14.4046868 15.048 13.1659599 15.048 11.927233 15.048 11.6906383 15.2429226 11.4983604 15.4811613 11.4983604 21.1606277 11.4983604 26.8393723 11.4983604 32.5188387 11.4983604 32.7570774 11.4983604 32.952 11.6906383 32.952 11.927233 32.952 13.1659599 32.952 14.4046868 32.952 15.6441285 32.952 15.8792936 32.7570774 16.0730011 32.5188387 16.0730011 30.5327942 16.0730011 28.5460277 16.0730011 26.5599832 16.0730011 26.5599832 19.7334284 26.5599832 23.692637 26.5599832 27.6525603 26.5599832 27.8877255 26.3650606 28.0814329 26.1268219 28.0814329 24.8757077 28.0814329 23.6238716 28.0814329 22.3727574 28.0814329 22.1345187 28.0814329 21.9395961 27.8877255 21.9395961 27.6525603 21.9395961 23.692637 21.9395961 19.7334284 21.9395961 16.0730011z"/>
  </g>
</svg>
