<svg xmlns="http://www.w3.org/2000/svg" width="48" height="48" viewBox="0 0 48 48">
  <g fill="none" fill-rule="evenodd">
    <path fill="#2775CA" d="M48,24 C48,20.85888 47.37504,17.71776 46.17312,14.81568 C44.9712,11.9136 43.19184,9.25056 40.9704,7.0296 C38.74944,4.80816 36.0864,3.0288 33.18432,1.82688 C30.28224,0.62496 27.14112,0 24,0 C20.85888,0 17.71776,0.62496 14.81568,1.82688 C11.9136,3.0288 9.25056,4.80816 7.0296,7.0296 C4.80816,9.25056 3.0288,11.9136 1.82688,14.81568 C0.62496,17.71776 0,20.85888 0,24 C0,27.14112 0.62496,30.28224 1.82688,33.18432 C3.0288,36.0864 4.80816,38.74944 7.0296,40.9704 C9.25056,43.19184 11.9136,44.9712 14.81568,46.17312 C17.71776,47.37504 20.85888,48 24,48 C27.14112,48 30.28224,47.37504 33.18432,46.17312 C36.0864,44.9712 38.74944,43.19184 40.9704,40.9704 C43.19184,38.74944 44.9712,36.0864 46.17312,33.18432 C47.37504,30.28224 48,27.14112 48,24 Z"/>
    <path fill="#FFF" d="M19.60512,40.6259644 C19.60512,41.2124198 19.19712,41.4077465 18.60528,41.4077465 C11.19744,39.0367366 6,32.3015287 6,24.3805782 C6,16.4596277 11.19744,9.7244198 18.60528,7.3534099 C19.19904,7.16331089 19.60512,7.54873663 19.60512,8.14849901 C19.60512,8.60853861 19.60512,9.06905347 19.60512,9.52909307 C19.60512,9.93305347 19.39488,10.3237069 18.99984,10.5190337 C13.19712,12.6947168 9.19728,18.0493307 9.19728,24.3805782 C9.19728,30.7251327 13.39488,36.2617663 18.99984,38.2421228 C19.39488,38.4374495 19.60512,38.8414099 19.60512,39.2320634 C19.60512,39.6968554 19.60512,40.1616475 19.60512,40.6259644 Z"/>
    <path fill="#FFF" d="M25.60512,35.6757861 C25.60512,36.0664396 25.19712,36.4570931 24.80256,36.4570931 C24.26736,36.4570931 23.73264,36.4570931 23.19744,36.4570931 C22.80288,36.4570931 22.39488,36.0664396 22.39488,35.6757861 C22.39488,34.8811723 22.39488,34.0860832 22.39488,33.2914693 C19.19712,32.9008158 17.60544,31.1157861 17.00016,28.5366178 C17.00016,28.1454891 17.19744,27.7548356 17.60544,27.7548356 C18.2016,27.7548356 18.79824,27.7548356 19.39488,27.7548356 C19.80288,27.7548356 20.00016,27.9501624 20.19744,28.3408158 C20.60544,29.7351921 21.39456,30.9204594 24,30.9204594 C26.00016,30.9204594 27.39456,29.9305188 27.39456,28.3408158 C27.39456,26.764895 26.60544,26.1656079 23.80272,25.7744792 C19.6032,25.1889743 17.60544,23.9899248 17.60544,20.6156673 C17.60544,18.0493307 19.60512,16.0689743 22.39488,15.6650139 C22.39488,14.8746772 22.39488,14.0843406 22.39488,13.294004 C22.39488,12.9033505 22.80288,12.4993901 23.19744,12.4993901 C23.73264,12.4993901 24.26736,12.4993901 24.80256,12.4993901 C25.19712,12.4993901 25.60512,12.9033505 25.60512,13.294004 C25.60512,14.0843406 25.60512,14.8746772 25.60512,15.6650139 C27.99984,16.0689743 29.60544,17.4500436 30,19.6257267 C30,20.0296871 29.80272,20.4203406 29.39472,20.4203406 C28.86384,20.4203406 28.33344,20.4203406 27.80256,20.4203406 C27.39456,20.4203406 27.19728,20.2250139 27,19.8338851 C26.60544,18.4399842 25.60512,17.854004 23.80272,17.854004 C21.80256,17.854004 20.80272,18.8439446 20.80272,20.2250139 C20.80272,21.6056079 21.39456,22.4002218 24.39456,22.8041822 C28.608,23.3716277 30.60528,24.575905 30.60528,27.9501624 C30.60528,30.516499 28.60512,32.7054891 25.60512,33.2914693 L25.60512,35.6757861 Z"/>
    <path fill="#FFF" d="M29.39472,41.4077465 C28.80288,41.6163802 28.39488,41.2124198 28.39488,40.6259644 C28.39488,40.1616475 28.39488,39.6968554 28.39488,39.2320634 C28.39488,38.8414099 28.60512,38.4374495 29.00016,38.2421228 C34.80288,36.0664396 38.80272,30.7251327 38.80272,24.3805782 C38.80272,18.0493307 34.60512,12.4993901 29.00016,10.5190337 C28.60512,10.3237069 28.39488,9.93305347 28.39488,9.52909307 C28.39488,9.06905347 28.39488,8.60853861 28.39488,8.14849901 C28.39488,7.54873663 28.80288,7.3534099 29.39472,7.3534099 C36.60528,9.7244198 42,16.4596277 42,24.3805782 C42,32.3015287 36.80256,39.0367366 29.39472,41.4077465 Z"/>
  </g>
</svg>
