<svg xmlns="http://www.w3.org/2000/svg" width="48" height="48" viewBox="0 0 48 48">
  <g fill="none" fill-rule="evenodd">
    <path fill="#54AE94" d="M48,24 C48,20.85888 47.37504,17.71776 46.17312,14.81568 C44.9712,11.9136 43.19184,9.25056 40.9704,7.0296 C38.74944,4.80816 36.0864,3.0288 33.18432,1.82688 C30.28224,0.62496 27.14112,0 24,0 C20.85888,0 17.71776,0.62496 14.81568,1.82688 C11.9136,3.0288 9.25056,4.80816 7.0296,7.0296 C4.80816,9.25056 3.0288,11.9136 1.82688,14.81568 C0.62496,17.71776 0,20.85888 0,24 C0,27.14112 0.62496,30.28224 1.82688,33.18432 C3.0288,36.0864 4.80816,38.74944 7.0296,40.9704 C9.25056,43.19184 11.9136,44.9712 14.81568,46.17312 C17.71776,47.37504 20.85888,48 24,48 C27.14112,48 30.28224,47.37504 33.18432,46.17312 C36.0864,44.9712 38.74944,43.19184 40.9704,40.9704 C43.19184,38.74944 44.9712,36.0864 46.17312,33.18432 C47.37504,30.28224 48,27.14112 48,24 Z"/>
    <path fill="#FFF" d="M35.6704953,12 L35.6704953,17.3522576 L27.5394799,17.3522576 L27.5394799,20.3691306 L27.5643381,20.3700751 C30.8905539,20.5216744 33.8051756,20.9207442 35.9248136,21.4898318 C36.9851106,21.7741395 37.8460641,22.0971735 38.4818599,22.4820751 C38.7997578,22.6742898 39.064115,22.8820894 39.2644146,23.1300322 C39.4647141,23.3784472 39.6,23.6821181 39.6,24.0065689 C39.6,24.3310197 39.4647141,24.6346905 39.2644146,24.8831055 C39.064115,25.1310483 38.7997578,25.3388479 38.4818599,25.5310626 C37.8460641,25.9159642 36.9851106,26.2389982 35.9252916,26.5233059 C33.8051756,27.0923936 30.8905539,27.4914633 27.5643381,27.6430626 L27.5643381,27.6430626 L27.5413921,27.6440072 L27.5413921,38.4 L21.6586079,38.4 L21.6586079,27.6440072 L21.6356619,27.6430626 C18.3094461,27.4914633 15.3948244,27.0923936 13.2747084,26.5233059 C12.2148894,26.2389982 11.3539359,25.9159642 10.7181401,25.5310626 C10.4002422,25.3388479 10.135885,25.1310483 9.93558544,24.8831055 C9.73528587,24.6346905 9.6,24.3310197 9.6,24.0065689 C9.6,23.6821181 9.73528587,23.3784472 9.93558544,23.1300322 C10.135885,22.8820894 10.4002422,22.6742898 10.7181401,22.4820751 C11.3539359,22.0971735 12.2148894,21.7741395 13.2751864,21.4898318 C15.3948244,20.9207442 18.3094461,20.5216744 21.6356619,20.3700751 L21.6356619,20.3700751 L21.6605201,20.3691306 L21.6605201,17.3522576 L13.5295047,17.3522576 L13.5295047,12 L35.6704953,12 Z M27.5423481,21.5507549 L27.5423481,24.5633775 L27.4845051,24.5685725 C27.4094525,24.5751843 27.1431831,24.5978533 26.663229,24.618161 C26.423252,24.6280787 26.1297342,24.6379964 25.7807636,24.6450805 C25.6062783,24.6483864 25.4179298,24.65122 25.2147619,24.6531091 C25.113417,24.6540537 25.0087259,24.6549982 24.8997323,24.6554705 L24.8997323,24.6554705 L24.3002677,24.6554705 C24.1912741,24.6549982 24.086583,24.6540537 23.9852381,24.6531091 C23.7820702,24.65122 23.5937217,24.6483864 23.4192364,24.6450805 C23.0702658,24.6379964 22.776748,24.6280787 22.536771,24.618161 C22.0568169,24.5978533 21.7905475,24.5751843 21.7154949,24.5685725 L21.7154949,24.5685725 L21.6576519,24.5633775 L21.6576519,21.5507549 C18.7626299,21.6787406 16.2357002,21.993746 14.4506916,22.419263 C13.5572312,22.6327299 12.848295,22.8759499 12.3865065,23.1229481 C12.1556122,23.2462111 11.9878195,23.3713631 11.8893429,23.4790411 C11.7908662,23.5871914 11.7636178,23.6651163 11.7636178,23.7317066 C11.7636178,23.798297 11.7908662,23.8762218 11.8893429,23.9843721 C11.9878195,24.0920501 12.1556122,24.2172021 12.3869845,24.3404651 C12.848773,24.5874633 13.5577092,24.8306834 14.4516477,25.0441503 C16.2390465,25.4706118 18.7707566,25.7860894 21.6700809,25.9136029 L21.6700809,25.9136029 L24.6,25.9783041 L27.5299191,25.9136029 C30.4292434,25.7860894 32.9609535,25.4706118 34.7483523,25.0441503 C35.6422908,24.8306834 36.351227,24.5874633 36.8130155,24.3404651 C37.0443878,24.2172021 37.2121805,24.0920501 37.3106571,23.9843721 C37.4091338,23.8762218 37.4363822,23.798297 37.4363822,23.7317066 C37.4363822,23.6651163 37.4091338,23.5871914 37.3106571,23.4790411 C37.2121805,23.3713631 37.0443878,23.2462111 36.8134935,23.1229481 C36.351705,22.8759499 35.6427688,22.6327299 34.7493084,22.419263 C32.9642998,21.993746 30.4373701,21.6787406 27.5423481,21.5507549 L27.5423481,21.5507549 Z"/>
  </g>
</svg>
