<svg xmlns="http://www.w3.org/2000/svg" width="48" height="49" viewBox="0 0 48 49">
  <g fill="none" fill-rule="evenodd">
    <path fill="#0273EF" d="M48,24.427104 C48,21.285984 47.37504,18.144864 46.17312,15.242784 C44.9712,12.340704 43.19184,9.677664 40.9704,7.456704 C38.74944,5.235264 36.0864,3.455904 33.18432,2.253984 C30.28224,1.052064 27.14112,0.427104 24,0.427104 C20.85888,0.427104 17.71776,1.052064 14.81568,2.253984 C11.9136,3.455904 9.25056,5.235264 7.0296,7.456704 C4.80816,9.677664 3.0288,12.340704 1.82688,15.242784 C0.62496,18.144864 0,21.285984 0,24.427104 C0,27.568224 0.62496,30.709344 1.82688,33.611424 C3.0288,36.513504 4.80816,39.176544 7.0296,41.397504 C9.25056,43.618944 11.9136,45.398304 14.81568,46.600224 C17.71776,47.802144 20.85888,48.427104 24,48.427104 C27.14112,48.427104 30.28224,47.802144 33.18432,46.600224 C36.0864,45.398304 38.74944,43.618944 40.9704,41.397504 C43.19184,39.176544 44.9712,36.513504 46.17312,33.611424 C47.37504,30.709344 48,27.568224 48,24.427104 Z"/>
    <polygon fill="#FFF" points="22.76 13.591 25.24 13.591 25.24 35.264 22.76 35.264"/>
    <path fill="#FFF" d="M21.35184 23.786304L21.35184 21.196224C19.36224 20.217504 17.99232 18.169824 17.99232 15.802464 17.99232 12.485664 20.68224 9.795744 24 9.795744 27.72528 9.795744 30.4152 12.485664 30.4152 15.802464 30.4152 16.638624 30.24336 17.434944 29.83104 18.381024L28.77168 14.937024 26.64816 15.600864 28.5312 22.768224 35.8416 20.078784 34.95312 17.982624 32.22672 18.915744C32.72016 17.845824 32.81712 17.059104 32.81712 15.802464 32.81712 11.157984 29.052 7.392864 24 7.392864 19.35552 7.392864 15.5904 11.157984 15.5904 15.802464 15.5904 19.521504 18.00528 22.676544 21.35184 23.786304zM26.64816 25.068864L26.64816 27.658944C28.63776 28.638144 30.00768 30.685344 30.00768 33.052704 30.00768 36.369504 27.31776 39.059424 24 39.059424 20.27472 39.059424 17.5848 36.369504 17.5848 33.052704 17.5848 32.216544 17.75664 31.420224 18.16896 30.474144L19.22832 33.918144 21.35184 33.254304 19.4688 26.086944 12.1584 28.776864 13.04688 30.872544 15.77328 29.939424C15.27984 31.009344 15.18288 31.796064 15.18288 33.052704 15.18288 37.697184 18.948 41.462304 24 41.462304 28.64448 41.462304 32.4096 37.697184 32.4096 33.052704 32.4096 29.333664 29.99472 26.178624 26.64816 25.068864z"/>
  </g>
</svg>
