<svg xmlns="http://www.w3.org/2000/svg" width="48" height="48" viewBox="0 0 48 48">
  <g fill="none" fill-rule="evenodd">
    <path fill="#0273EF" d="M48,24 C48,20.85888 47.37504,17.71776 46.17312,14.81568 C44.9712,11.9136 43.19184,9.25056 40.9704,7.0296 C38.74944,4.80816 36.0864,3.0288 33.18432,1.82688 C30.28224,0.62496 27.14112,-3.55271368e-15 24,-3.55271368e-15 C20.85888,-3.55271368e-15 17.71776,0.62496 14.81568,1.82688 C11.9136,3.0288 9.25056,4.80816 7.0296,7.0296 C4.80816,9.25056 3.0288,11.9136 1.82688,14.81568 C0.62496,17.71776 0,20.85888 0,24 C0,27.14112 0.62496,30.28224 1.82688,33.18432 C3.0288,36.0864 4.80816,38.74944 7.0296,40.9704 C9.25056,43.19184 11.9136,44.9712 14.81568,46.17312 C17.71776,47.37504 20.85888,48 24,48 C27.14112,48 30.28224,47.37504 33.18432,46.17312 C36.0864,44.9712 38.74944,43.19184 40.9704,40.9704 C43.19184,38.74944 44.9712,36.0864 46.17312,33.18432 C47.37504,30.28224 48,27.14112 48,24 Z"/>
    <polygon fill="#FFF" points="22.76 13.164 25.24 13.164 25.24 34.837 22.76 34.837"/>
    <path fill="#FFF" d="M21.35184 23.3592L21.35184 20.76912C19.36224 19.7904 17.99232 17.74272 17.99232 15.37536 17.99232 12.05856 20.68224 9.36864 24 9.36864 27.72528 9.36864 30.4152 12.05856 30.4152 15.37536 30.4152 16.21152 30.24336 17.00784 29.83104 17.95392L28.77168 14.50992 26.64816 15.17376 28.5312 22.34112 35.8416 19.65168 34.95312 17.55552 32.22672 18.48864C32.72016 17.41872 32.81712 16.632 32.81712 15.37536 32.81712 10.73088 29.052 6.96576 24 6.96576 19.35552 6.96576 15.5904 10.73088 15.5904 15.37536 15.5904 19.0944 18.00528 22.24944 21.35184 23.3592zM26.64816 24.64176L26.64816 27.23184C28.63776 28.21104 30.00768 30.25824 30.00768 32.6256 30.00768 35.9424 27.31776 38.63232 24 38.63232 20.27472 38.63232 17.5848 35.9424 17.5848 32.6256 17.5848 31.78944 17.75664 30.99312 18.16896 30.04704L19.22832 33.49104 21.35184 32.8272 19.4688 25.65984 12.1584 28.34976 13.04688 30.44544 15.77328 29.51232C15.27984 30.58224 15.18288 31.36896 15.18288 32.6256 15.18288 37.27008 18.948 41.0352 24 41.0352 28.64448 41.0352 32.4096 37.27008 32.4096 32.6256 32.4096 28.90656 29.99472 25.75152 26.64816 24.64176z"/>
  </g>
</svg>
