<svg xmlns="http://www.w3.org/2000/svg" width="48" height="48" viewBox="0 0 48 48">
  <g fill="none" fill-rule="evenodd">
    <path fill="#0273EF" d="M48,24 C48,20.85888 47.37504,17.71776 46.17312,14.81568 C44.9712,11.9136 43.19184,9.25056 40.9704,7.0296 C38.74944,4.80816 36.0864,3.0288 33.18432,1.82688 C30.28224,0.62496 27.14112,0 24,0 C20.85888,0 17.71776,0.62496 14.81568,1.82688 C11.9136,3.0288 9.25056,4.80816 7.0296,7.0296 C4.80816,9.25056 3.0288,11.9136 1.82688,14.81568 C0.62496,17.71776 0,20.85888 0,24 C0,27.14112 0.62496,30.28224 1.82688,33.18432 C3.0288,36.0864 4.80816,38.74944 7.0296,40.9704 C9.25056,43.19184 11.9136,44.9712 14.81568,46.17312 C17.71776,47.37504 20.85888,48 24,48 C27.14112,48 30.28224,47.37504 33.18432,46.17312 C36.0864,44.9712 38.74944,43.19184 40.9704,40.9704 C43.19184,38.74944 44.9712,36.0864 46.17312,33.18432 C47.37504,30.28224 48,27.14112 48,24 Z"/>
    <path fill="#FFF" d="M39.62688 18.4447366C39.57888 18.4119446 39.4992 18.3501624 39.39696 18.2646178 37.60752 16.7633109 37.2744 16.7115089 37.0392 16.8260436 36.77472 16.9063604 36.6192 17.0608158 35.99136 19.6827564 35.95248 19.8438653 35.92368 19.9636277 35.90976 20.0235089 35.56752 21.5067564 35.65392 21.9107168 35.82336 22.0974891 35.89392 22.1754297 35.98416 22.2310337 36.0864 22.258598 36.18672 22.304697 36.3096 22.3118257 36.42336 22.2723802 36.81216 22.1383604 37.14672 21.5428752 37.36272 20.9003406 37.39728 21.0871129 37.4232 21.2738851 37.44432 21.4620832 37.46448 21.6488554 37.48368 21.8370535 37.4976 22.0309545 37.51296 22.2448158 37.52544 22.4520238 37.53216 22.6663604 37.53888 22.8735683 37.54608 23.0874297 37.54608 23.2946376 37.54608 23.5089743 37.53216 23.7228356 37.52544 23.9300436 37.51872 24.1258455 37.4976 24.3121426 37.48368 24.4989149 37.46928 24.6942416 37.44432 24.8805386 37.41648 25.0673109 37.38768 25.2612119 37.36272 25.4494099 37.3368 25.6357069 37.31328 25.8044198 37.2744 25.9717069 37.24176 26.1309149 37.1976 26.3457267 37.14672 26.5472317 37.09968 26.7544396 37.05264 26.9630733 36.984 27.1688554 36.92352 27.3689347 36.86736 27.5552317 36.80928 27.7372515 36.7488 27.916895 36.68784 28.0984396 36.6192 28.2785584 36.55152 28.460103 36.48384 28.642598 36.40272 28.8212911 36.32832 28.9942812 36.25008 29.176301 36.16752 29.3488158 36.0864 29.5237069 35.59968 30.5692515 34.9776 31.4964594 34.24752 32.3937267 34.13664 32.5301228 34.01232 32.6679446 33.89616 32.8014891 33.77808 32.9378851 33.65424 33.0685782 33.53136 33.1954693 33.21696 33.5200634 32.88288 33.8446574 32.54544 34.1459644 32.4072 34.2695287 32.26848 34.3873901 32.12688 34.4938455 30.86688 35.4367366 29.59968 36.2475089 28.13952 36.815905 27.95952 36.8862416 27.768 36.9494495 27.59328 37.0093307 27.40224 37.0749149 27.22128 37.1295683 27.03264 37.1894495 26.85024 37.2474297 26.66064 37.2973307 26.47056 37.3434297 25.71168 37.5278257 24.97104 37.6656475 24.1944 37.7388356 23.9568 37.7616475 23.72736 37.7782812 23.49168 37.7920634 23.32272 37.8020436 23.1528 37.8058455 22.97808 37.8058455 22.7688 37.8058455 22.5528 37.812499 22.34352 37.8058455 22.12704 37.7987168 21.91104 37.7854099 21.69984 37.7716277 21.50448 37.758796 21.31584 37.7388356 21.12576 37.7184 20.95728 37.7003406 20.78832 37.6789545 20.61888 37.6585188 20.40144 37.6323802 20.19312 37.5919842 19.98384 37.5506376 19.79616 37.5140436 19.60704 37.4769743 19.41648 37.4308752 19.20816 37.3800238 19.00512 37.3315485 18.79536 37.2764198 18.60432 37.2265188 18.42384 37.1704396 18.24048 37.1105584 18.05184 37.0487762 17.8704 36.988895 17.68704 36.9223604 17.6064 36.892895 17.52528 36.8634297 17.44464 36.8349149 17.19264 36.7450931 16.91712 36.7750337 16.70064 36.9290139 16.47984 37.0863208 16.35648 37.3367762 16.36368 37.6052911 16.38048 38.2601822 17.15424 38.7957861 18.6192 39.1897663L18.62592 39.1897663C18.80928 39.2377663 18.9912 39.2838653 19.17936 39.3299644 19.38336 39.3798653 19.59312 39.4174099 19.8024 39.4587564 20.01792 39.5010535 20.22768 39.5324198 20.43696 39.5647366 20.64672 39.5975287 20.85552 39.6246178 21.072 39.6521822 21.2808 39.6783208 21.49056 39.6916277 21.70656 39.7049347 21.91632 39.7182416 22.13232 39.732499 22.34352 39.7396277 22.55952 39.7462812 22.7688 39.7529347 22.98528 39.7462812 23.19408 39.7396277 23.41056 39.7462812 23.61984 39.732499 23.808 39.7201426 23.99856 39.7120634 24.1872 39.6982812 24.42432 39.6811723 24.65952 39.6588356 24.88944 39.6246178 25.10592 39.6056079 25.3152 39.5713901 25.52448 39.5390733 25.73568 39.5062812 25.94448 39.4654099 26.15376 39.4240634 26.36304 39.3831921 26.5728 39.3370931 26.78208 39.2905188 26.9928 39.2439446 27.19344 39.1845386 27.40272 39.1227564 27.61152 39.0614495 27.81648 39.0029941 28.01856 38.9359842 28.22736 38.8675485 28.4232 38.8024396 28.62576 38.7287762 28.82976 38.6546376 29.03232 38.574796 29.23488 38.4873505 29.4288 38.4037069 29.62752 38.3214891 29.8296 38.2340436 29.9976 38.146598 30.17376 38.0662812 30.34848 37.9788356 30.54624 37.8799842 30.7344 37.7782812 30.92448 37.672301 31.09248 37.5786772 31.26192 37.4769743 31.42992 37.3776475 31.59456 37.2802218 31.76208 37.1704396 31.92432 37.0625584 32.08992 36.9527762 32.24784 36.848697 32.41056 36.7355881 32.57376 36.622004 32.73408 36.5008158 32.8896 36.3810535 33.04608 36.2603406 33.20112 36.1396277 33.35664 36.0127366 33.51216 35.8858455 33.66096 35.752301 33.81504 35.6187564 33.94608 35.5051723 34.0728 35.3839842 34.20096 35.262796 34.2936 35.1744 34.38432 35.0898059 34.47744 35.0023604 34.61952 34.8550337 34.7544 34.7143604 34.896 34.5670337 35.03808 34.4201822 35.16768 34.2728554 35.30256 34.1184 35.43024 33.972499 35.55888 33.8189941 35.68656 33.6645386 35.8128 33.5129347 35.9304 33.3494495 36.05184 33.1954693 36.15888 33.0590733 36.25584 32.9212515 36.34896 32.7739248 36.47712 32.6009347 36.6 32.4127366 36.72096 32.2330931 36.81888 32.0876673 36.90432 31.9450931 36.99072 31.7977663 37.10016 31.6114693 37.2072 31.422796 37.31616 31.2293703 37.40928 31.0639842 37.49088 30.8952713 37.5792 30.7208554 37.66656 30.5473901 37.74864 30.380103 37.82976 30.1985584 37.91664 30.0046574 37.99776 29.8112317 38.07888 29.6106772 38.16096 29.4091723 38.2416 29.2152713 38.316 29.0147168 38.38176 28.8369743 38.43696 28.6535287 38.49744 28.4738851 38.56512 28.2733307 38.62032 28.0642218 38.6808 27.8641426 38.74272 27.6588356 38.78832 27.4563802 38.8368 27.2425188 38.88192 27.0414891 38.92992 26.8347564 38.97168 26.6275485 39.00912 26.4398257 39.03888 26.2592317 39.072 26.0710337 39.108 25.8638257 39.13392 25.6494891 39.15984 25.4422812 39.18336 25.2559842 39.2016 25.0673109 39.2136 24.8805386 39.22704 24.6733307 39.24144 24.4661228 39.25536 24.2522614 39.26736 24.0640634 39.2688 23.8768158 39.2688 23.6905188 39.2688 23.4557465 39.2688 23.2209743 39.26208 22.986202 39.2568 22.799905 39.24144 22.6131327 39.23424 22.4244594 39.22608 22.1911129 39.19488 21.9639446 39.16704 21.7291723 39.1416 21.5157861 39.12048 21.308103 39.08544 21.100895 39.05136 20.8936871 39.01824 20.6864792 38.9784 20.4721426 38.94816 20.3105584 38.9112 20.1432713 38.87616 19.9840634 39.41088 20.4056079 40.20144 20.9193505 40.70112 20.7786772 40.83024 20.7425584 40.93824 20.6589149 40.99872 20.5529347 41.07312 20.4654891 41.11968 20.3576079 41.12688 20.2378455 41.15088 19.8167762 40.63392 19.2136871 39.62688 18.4447366zM17.47728 29.0014099C18.28896 28.1977663 17.4168 26.0244594 15.53136 24.1648158 13.64976 22.3080238 11.45808 21.4349941 10.64688 22.2381624 9.8352 23.0413307 10.70736 25.2146376 12.5856 27.0814099 14.46432 28.9481822 16.66608 29.8045782 17.47728 29.0014099zM28.86288 17.7218851C29.67408 16.9201426 28.8024 14.7454099 26.92368 12.8852911 25.04544 11.0251723 22.84992 10.1621228 22.03872 10.9652911 21.22752 11.7684594 22.0992 13.9422416 23.97792 15.8018851 25.85664 17.662004 28.05168 18.5250535 28.86288 17.7218851z"/>
  </g>
</svg>
