<svg xmlns="http://www.w3.org/2000/svg" width="100" height="100" viewBox="0 0 100 100">
  <g fill="none" fill-rule="evenodd">
    <path fill="#FFF" d="M100,49.9998 C100,43.4558 98.698,36.9118 96.194,30.8658 C93.689,24.8198 89.982,19.2718 85.355,14.6448 C80.728,10.0168 75.18,6.3108 69.134,3.8058 C63.088,1.3018 56.544,-0.0002 50,-0.0002 C43.456,-0.0002 36.911,1.3018 30.865,3.8058 C24.819,6.3108 19.272,10.0168 14.644,14.6448 C10.017,19.2718 6.31,24.8198 3.806,30.8658 C1.301,36.9118 0,43.4558 0,49.9998 C0,56.5438 1.301,63.0878 3.806,69.1338 C6.31,75.1798 10.017,80.7278 14.644,85.3558 C19.272,89.9828 24.819,93.6898 30.865,96.1938 C36.911,98.6978 43.456,99.9998 50,99.9998 C56.544,99.9998 63.088,98.6978 69.134,96.1938 C75.18,93.6898 80.728,89.9828 85.355,85.3558 C89.982,80.7278 93.689,75.1798 96.194,69.1338 C98.698,63.0878 100,56.5438 100,49.9998 Z"/>
    <path fill="#000" d="M37.046,10.5738 C41.704,9.0428 46.682,8.3428 51.613,8.5318 C56.545,8.7208 61.431,9.7998 65.978,11.6998 C70.526,13.5998 74.735,16.3218 78.336,19.6798 C83.099,24.1228 86.797,29.6798 89.015,35.8958 C91.234,42.1128 91.973,48.9888 91.117,55.5348 C90.262,62.0808 87.812,68.2978 84.106,73.6438 C80.4,78.9898 75.437,83.4638 69.608,86.5638 C63.779,89.6628 57.082,91.3868 50.481,91.4868 C43.88,91.5868 37.374,90.0638 31.547,87.1718 C25.721,84.2798 20.573,80.0198 16.664,74.6988 C12.755,69.3778 10.085,62.9958 9.025,56.4838 C7.965,49.9708 8.515,43.3268 10.546,37.1288 C12.081,32.4428 14.463,28.0128 17.515,24.1738 L12.876,24.1738 L12.876,16.5058 L31.053,16.5058 L31.053,33.4798 L23.385,33.4798 L23.385,28.8418 C20.885,31.9858 18.933,35.6148 17.676,39.4548 C16.013,44.5348 15.565,49.9848 16.426,55.3028 C17.496,61.9178 20.59,68.3278 25.208,73.2678 C30.732,79.1758 38.436,82.9818 46.456,83.8148 C54.475,84.6478 62.81,82.5088 69.429,77.9018 C76.048,73.2948 80.953,66.2198 82.944,58.4058 C84.935,50.5918 84.012,42.0388 80.422,34.8188 C76.832,27.5988 70.574,21.7138 63.091,18.6218 C55.608,15.5288 46.899,15.2308 39.387,17.6988 L37.046,10.5738 Z"/>
    <g fill="#000" transform="translate(33.262 33.976)">
      <path d="M10.2251925,14.1079415 C11.9295273,14.0638639 13.6346784,14.0638639 15.3398295,14.1079415 C20.2699933,14.2344606 24.2377958,18.1810405 24.2377958,23.1128368 C24.2377958,28.043817 20.2716258,32.0581458 15.3398295,32.1177322 C10.9434946,32.1699723 6.54552718,32.1699723 2.1475598,32.1177322 C1.07500428,32.1046722 0.219571868,31.2125084 0.219571868,30.1391366 C0.219571868,29.0665811 1.07500428,28.1882936 2.1475598,28.1613573 C6.54389468,28.0487145 10.9410458,28.0487145 15.3398295,28.1613573 C18.1273311,28.2323713 20.3891662,25.9011547 20.3891662,23.1128368 C20.3891662,20.324519 18.1281473,18.0643164 15.3398295,18.0643164 C14.9806784,18.0643164 14.6215274,18.0643164 14.2623764,18.0643164 C12.5580416,18.1075777 10.8528906,18.1075777 9.14773951,18.0643164 C4.21757563,17.9377973 0.249773203,13.9904012 0.249773203,9.05942101 C0.249773203,4.12762462 4.21594312,0.114112071 9.14773951,0.0545256536 C13.5440744,0.00146925414 17.9412255,0.00146925414 22.3383767,0.0545256536 C23.4117484,0.0675856903 24.2663646,0.959749453 24.2663646,2.03230497 C24.2663646,3.10567675 23.4109322,3.98314797 22.3383767,4.01090055 C17.942858,4.12354336 13.5457069,4.12354336 9.14773951,4.01090055 C6.36023791,3.93907034 4.09840279,6.27110316 4.09840279,9.05942101 C4.09840279,11.8477389 6.35942166,14.1079415 9.14773951,14.1079415 C9.50689052,14.1079415 9.86604154,14.1079415 10.2251925,14.1079415 Z"/>
      <path d="M2.90177692 26.8839225C3.17848645 26.8782087 3.45437973 26.8716787 3.73108926 26.8667812 4.52285399 26.8512724 5.31543497 26.8398448 6.10801595 26.8316823L11.4789561 19.3548113C11.0275686 19.353995 10.5753648 19.3499137 10.1239773 19.3433837 9.89216161 19.3393025 9.66034596 19.3352212 9.4285303 19.3295074 9.31262248 19.3270587 9.20242842 19.3246099 9.07917432 19.3213449 8.95510397 19.3172637 8.83266613 19.3123661 8.70941203 19.3042036 8.59513671 19.2968573 8.48086138 19.2878786 8.36658606 19.276451L2.90177692 26.8839225zM13.0077966 12.8166303C13.4591842 12.8174466 13.9113879 12.8215279 14.3635917 12.8288741 14.5954074 12.8329554 14.827223 12.8370367 15.0590387 12.8419342 15.1749465 12.8451992 15.2851405 12.8468317 15.4092109 12.8509129 15.532465 12.854178 15.6557191 12.8598917 15.7781569 12.8680542 15.8924323 12.8754005 16.0058913 12.8843793 16.1193504 12.8949906L21.5841595 5.28751914C21.3082663 5.29404916 21.0315567 5.29976293 20.7556635 5.30547669 19.9630825 5.32098549 19.1705015 5.33241302 18.3779205 5.34057554L13.0077966 12.8166303z"/>
    </g>
    <path fill="#000" d="M6.14865659.371587183C6.14865659.234412475 6.26089676.109392488 6.39944321.109392488 6.95713654.109392488 7.51482986.109392488 8.07252319.109392488 8.21106964.109392488 8.33733983.232676087 8.33733983.371587183 8.33733983 1.96385563 8.33733983 3.55612407 8.33733983 5.14839251 8.33733983 7.9795743 6.72037994 9.62132982 4.15463989 9.62132982 1.60380675 9.62132982 3.67334587e-14 7.9795743 3.67334587e-14 5.14839251 3.67334587e-14 3.55612407 3.67334587e-14 1.96385563 3.67334587e-14.371587183 3.67334587e-14.234412475.113117042.109392488.250786621.109392488.808479946.109392488 1.36617327.109392488 1.92386659.109392488 2.06328993.109392488 2.18868324.232676087 2.18868324.371587183 2.18868324 1.98642868 2.18868324 3.60127018 2.18868324 5.21611167 2.18868324 6.6113 2.91298306 7.60364614 4.16866991 7.60364614 5.42435677 7.60364614 6.14865659 6.6113 6.14865659 5.21611167 6.14865659 3.60127018 6.14865659 1.98642868 6.14865659.371587183zM16.0205299 3.17411856C15.7978034 3.17411856 15.7276533 3.0907719 15.6434731 2.92581497 15.3505964 2.24949157 14.708723 1.82147175 13.7336366 1.82147175 12.8550065 1.82147175 12.1166767 2.12533978 12.1166767 2.7052936 12.1166767 3.34081187 12.8006402 3.60300657 14.3053599 3.7818546 16.5913764 4.05359943 17.9023065 4.735132 17.9023065 6.52882154 17.9023065 8.54390063 16.1161095 9.60657052 13.8318467 9.60657052 11.85186 9.60657052 10.1515969 8.65416131 9.88590337 6.65384152 9.86047396 6.46023418 9.95605347 6.39164683 10.1515969 6.39164683 10.6628158 6.39164683 11.1740346 6.39164683 11.6852535 6.39164683 11.8799201 6.39164683 11.9930371 6.47499349 12.0482803 6.6260593 12.2885444 7.27807326 12.9690004 7.79985807 14.000207 7.79985807 14.906897 7.79985807 15.701347 7.46820783 15.701347 6.7649704 15.701347 5.92282188 14.8656839 5.77175606 13.191727 5.56338941 11.2669835 5.32376777 9.92974718 4.76291422 9.92974718 3.00829343 9.92974718 1.25540903 11.4502507-4.25334785e-14 13.8344773-4.25334785e-14 15.9801936-4.25334785e-14 17.4726371 1.14601655 17.7804207 2.85809581 17.8146188 3.05257135 17.7655138 3.17585494 17.5568172 3.17585494 17.0447215 3.17585494 16.5326257 3.17585494 16.0205299 3.17585494L16.0205299 3.17411856zM23.5897261.109392488C26.4062528.109392488 28.594936 2.02810201 28.594936 4.83063338 28.594936 7.59149142 26.4343128 9.49717803 23.5897261 9.49717803L19.798113 9.49717803 19.798113 9.49717803C19.6595666 9.49717803 19.5473264 9.37128985 19.5473264 9.23411514L19.5473264.371587183 19.5473264.371587183C19.5473264.234412475 19.6595666.109392488 19.798113.109392488L23.5897261.109392488 23.5897261.109392488zM23.5756961 1.97080118L22.0008263 1.97080118 22.0008263 1.97080118C21.8622798 1.97080118 21.7491628 2.09408478 21.7491628 2.23299588L21.7491628 7.38138839 21.7491628 7.38138839C21.7491628 7.5185631 21.8622798 7.62969198 22.0008263 7.62969198L23.5897261 7.62969198 23.5897261 7.62969198 23.5897261 7.63229656C25.1102296 7.63229656 26.2940126 6.44373849 26.2940126 4.80111477 26.2940126 3.15935925 25.1084759 1.97080118 23.5756961 1.97080118z" transform="rotate(-90 62.708 1.678)"/>
  </g>
</svg>
