<svg xmlns="http://www.w3.org/2000/svg" width="100" height="100" viewBox="0 0 100 100">
  <g fill="none" fill-rule="evenodd">
    <path fill="#FFF" d="M100,49.9998 C100,43.4558 98.698,36.9118 96.194,30.8658 C93.689,24.8198 89.982,19.2718 85.355,14.6448 C80.728,10.0168 75.18,6.3108 69.134,3.8058 C63.088,1.3018 56.544,-0.0002 50,-0.0002 C43.456,-0.0002 36.911,1.3018 30.865,3.8058 C24.819,6.3108 19.272,10.0168 14.644,14.6448 C10.017,19.2718 6.31,24.8198 3.806,30.8658 C1.301,36.9118 0,43.4558 0,49.9998 C0,56.5438 1.301,63.0878 3.806,69.1338 C6.31,75.1798 10.017,80.7278 14.644,85.3558 C19.272,89.9828 24.819,93.6898 30.865,96.1938 C36.911,98.6978 43.456,99.9998 50,99.9998 C56.544,99.9998 63.088,98.6978 69.134,96.1938 C75.18,93.6898 80.728,89.9828 85.355,85.3558 C89.982,80.7278 93.689,75.1798 96.194,69.1338 C98.698,63.0878 100,56.5438 100,49.9998 Z"/>
    <path fill="#000" d="M37.046,10.5738 C41.704,9.0428 46.682,8.3428 51.613,8.5318 C56.545,8.7208 61.431,9.7998 65.978,11.6998 C70.526,13.5998 74.735,16.3218 78.336,19.6798 C83.099,24.1228 86.797,29.6798 89.015,35.8958 C91.234,42.1128 91.973,48.9888 91.117,55.5348 C90.262,62.0808 87.812,68.2978 84.106,73.6438 C80.4,78.9898 75.437,83.4638 69.608,86.5638 C63.779,89.6628 57.082,91.3868 50.481,91.4868 C43.88,91.5868 37.374,90.0638 31.547,87.1718 C25.721,84.2798 20.573,80.0198 16.664,74.6988 C12.755,69.3778 10.085,62.9958 9.025,56.4838 C7.965,49.9708 8.515,43.3268 10.546,37.1288 C12.081,32.4428 14.463,28.0128 17.515,24.1738 L12.876,24.1738 L12.876,16.5058 L31.053,16.5058 L31.053,33.4798 L23.385,33.4798 L23.385,28.8418 C20.885,31.9858 18.933,35.6148 17.676,39.4548 C16.013,44.5348 15.565,49.9848 16.426,55.3028 C17.496,61.9178 20.59,68.3278 25.208,73.2678 C30.732,79.1758 38.436,82.9818 46.456,83.8148 C54.475,84.6478 62.81,82.5088 69.429,77.9018 C76.048,73.2948 80.953,66.2198 82.944,58.4058 C84.935,50.5918 84.012,42.0388 80.422,34.8188 C76.832,27.5988 70.574,21.7138 63.091,18.6218 C55.608,15.5288 46.899,15.2308 39.387,17.6988 L37.046,10.5738 Z"/>
    <g fill="#000" fill-rule="nonzero" transform="translate(24.98 25)">
      <path d="M36.94585 6.87312276L35.5822137 8.23675912C42.3266075 15.6122339 42.3266075 26.9158298 35.5822137 34.2913046L36.94585 35.6549409C44.4494076 27.5159353 44.4494076 14.9803102 36.94585 6.84130458L36.94585 6.87312276zM8.2685773 6.99130458C15.6440521.246910703 26.947648.246910703 34.3231228 6.99130458L35.6867591 5.62766821C27.5477535-1.8758894 15.0121283-1.8758894 6.87312276 5.62766821L8.2685773 6.99130458zM6.99130458 34.3049409C.255219758 26.9314713.255219758 15.6375015 6.99130458 8.26403185L5.62766821 6.90039548C-1.8758894 15.0394011-1.8758894 27.5750263 5.62766821 35.7140318L6.99130458 34.3049409zM34.3049409 35.5640318C26.9294662 42.3084257 15.6258703 42.3084257 8.25039548 35.5640318L6.88675912 36.9276682C15.0257647 44.4312258 27.5613899 44.4312258 35.7003955 36.9276682L34.3049409 35.5640318z" transform="translate(3.55 3.55)"/>
      <path d="M34.1791615,19.1064254 C33.8675755,15.8555443 31.0633011,14.7649932 27.5164134,14.4326348 L27.5164134,9.95618199 L24.7744562,9.95618199 L24.7744562,14.3495451 C24.0526152,14.3495451 23.3151949,14.3495451 22.5829677,14.3495451 L22.5829677,9.95618199 L19.861783,9.95618199 L19.861783,14.4637934 L14.2999722,14.4637934 L14.2999722,17.3978952 C14.2999722,17.3978952 16.3252814,17.3615435 16.2941228,17.3978952 C17.053152,17.3143942 17.7419511,17.8470656 17.852053,18.6026946 L17.852053,30.9415018 C17.8362899,31.2005279 17.7164101,31.4421604 17.5196946,31.6114117 C17.3266411,31.7839174 17.0715645,31.8701933 16.8134329,31.8502944 C16.8497846,31.881453 14.8192823,31.8502944 14.8192823,31.8502944 L14.2999722,35.1271409 L19.809852,35.1271409 L19.809852,39.7074557 L22.5518091,39.7074557 L22.5518091,35.1946512 L24.7432976,35.1946512 L24.7432976,39.6866833 L27.4904479,39.6866833 L27.4904479,35.1582995 C32.1226936,34.8778721 35.3528023,33.7353899 35.7578641,29.3991509 C36.0850295,25.9093872 34.4440096,24.351457 31.8214938,23.7230918 C33.4157757,22.9389336 34.4024648,21.4848655 34.1791615,19.1064254 Z M30.336267,28.8590684 C30.336267,32.2657424 24.4992219,31.8762599 22.6400918,31.8762599 L22.6400918,25.8314907 C24.4992219,25.8366838 30.336267,25.3017944 30.336267,28.8590684 Z M29.0639574,20.3423833 C29.0639574,23.4582437 24.1928289,23.0791474 22.6452849,23.0791474 L22.6452849,17.5848469 C24.1928289,17.5848469 29.0639574,17.0966954 29.0639574,20.3423833 Z"/>
      <path d="M24.8303033,4.62331137e-07 C38.5433543,-0.00083633713 49.661126,11.114222 49.6636368,24.8272727 C49.6648423,31.4146555 47.0485488,37.7325825 42.3905656,42.3905656 C37.7325825,47.0485488 31.4146555,49.6648423 24.8272727,49.6636368 C11.114222,49.661126 -0.00083633713,38.5433543 4.62331028e-07,24.8303033 C0.000837261793,11.1172523 11.1172523,0.000837261793 24.8303033,4.62331137e-07 Z M24.8272727,1.9363564 C12.1935487,1.94640335 1.95862128,12.1935373 1.96363813,24.8272643 C1.96865867,37.4609913 12.2117242,47.6999928 24.8454521,47.6999928 C37.4791801,47.6999928 47.7222494,37.4609997 47.7272745,24.8272727 C47.7296876,18.7539107 45.317501,12.928737 41.0221326,8.6350739 C36.7267643,4.34141077 30.9006333,1.93153728 24.8272727,1.9363564 Z"/>
    </g>
  </g>
</svg>
