<svg xmlns="http://www.w3.org/2000/svg" width="66" height="21" viewBox="0 0 66 21">
  <path fill="#FFF" fill-rule="evenodd" d="M52.8264706 1.21564706L56.4541176 1.21564706 56.4541176 2.41388235C57.1541176 1.59447059 58.4429412.923294118 59.9623529.923294118 62.9147059.923294118 64.5864706 2.85447059 64.5864706 5.74917647 64.5864706 8.59447059 64.5864706 11.4438824 64.5864706 14.2891765L60.9588235 14.2891765C60.9588235 11.6991765 60.9588235 9.10505882 60.9588235 6.51094118 60.9588235 5.13564706 60.2547059 4.19682353 58.8217647 4.19682353 57.71 4.19682353 56.7464706 4.87211765 56.4541176 6.01270588L56.4541176 14.2891765 52.8264706 14.2891765 52.8264706 1.21564706zM50.4835294 4.78564706C49.9894118 4.49329412 49.3429412 4.34505882 48.6717647 4.34505882 47.4405882 4.34505882 46.4482353 4.99152941 46.1847059 6.18976471L46.1847059 14.2932941 42.5570588 14.2932941 42.5570588 1.21564706 46.1847059 1.21564706 46.1847059 2.50447059C46.7405882 1.56564706 47.8235294.923294118 49.1082353.923294118 49.7258824.923294118 50.2776471 1.03858824 50.4835294 1.158L50.4835294 4.78564706zM34.1035294.923294118C37.5870588.923294118 39.6047059 2.82152941 39.6047059 5.95505882L39.6047059 14.2891765 39.6047059 14.2891765 36.1211765 14.2891765 36.1211765 13.5891765C35.6847059 14.0256471 34.3670588 14.5238824 32.9341176 14.5238824 30.3029412 14.5238824 28.0794118 13.0044706 28.0794118 10.2827059 28.0794118 7.79564706 30.3029412 6.09917647 33.14 6.09917647 34.2805882 6.09917647 35.5941176 6.478 36.1211765 6.86094118L36.1211765 5.89329412 36.1211765 5.89329412C36.1211765 4.78152941 35.45 3.87564706 33.9882353 3.87564706 32.9629412 3.87564706 32.3494118 4.34505882 32.0570588 5.10682353L28.6064706 5.10682353C28.9852941 2.73505882 31.1182353.923294118 34.1035294.923294118zM33.7535294 8.64388235C32.6129412 8.64388235 31.4435294 9.14211765 31.4435294 10.2538824 31.4435294 11.3944706 32.6129412 11.8638824 33.7535294 11.8638824 34.8035294 11.8638824 35.8 11.4232941 36.1211765 10.7232941L36.1211765 9.78447059C35.8 9.08447059 34.8035294 8.64388235 33.7535294 8.64388235zM20.5894118.923294118C24.4229412.923294118 26.5270588 3.58741176 26.5270588 7.41682353L26.5270588 8.52858824 26.5270588 8.52858824 17.81 8.52858824C17.9294118 10.4885882 19.0411765 11.658 20.6470588 11.658 21.8782353 11.658 22.7841176 11.1309412 23.0764706 10.0191765L26.4364706 10.0191765C25.9711765 12.7985882 23.9247059 14.5856471 20.6470588 14.5856471 16.8423529 14.5856471 14.3017647 11.8062353 14.3017647 7.76682353 14.3017647 3.818 16.9329412.923294118 20.5894118.923294118zM20.6182353 3.87976471C19.2141176 3.87976471 18.2176471 4.728 17.8964706 6.33388235L22.9570588 6.33388235C22.9282353 4.95858824 22.1088235 3.87976471 20.6182353 3.87976471zM3.87588235 19.1191765C4.94235294 19.0368235 6.96823529 18.5468235 7.91117647 16.0803529L13.5688235 1.21564706 9.91235294 1.21564706 6.92705882 9.90388235 3.91705882 1.21564706.0835294118 1.21564706 5.14 14.4209412C4.96705882 14.9150588 4.74882353 15.2527059 4.52647059 15.4832941 4.42352941 15.5862353 4.35764706 15.6397647 4.3 15.6850588 4.20529412 15.7550588 4.09 15.8003529 3.97470588 15.8415294 3.59588235 15.9691765 3.17176471 15.9815294 3.06058824 15.9815294 2.39764706 15.9815294 1.73882353 15.9815294 1.07588235 15.9815294L1.07588235 19.1191765 3.18411765 19.1191765 3.76058824 19.1191765 3.87588235 19.1191765z" transform="translate(.5 .5)"/>
</svg>
