<svg xmlns="http://www.w3.org/2000/svg" width="14" height="14" viewBox="0 0 14 14">
  <defs>
    <filter id="close-modal-a">
      <feColorMatrix in="SourceGraphic" values="0 0 0 0 0.000000 0 0 0 0 0.000000 0 0 0 0 0.000000 0 0 0 1.000000 0"/>
    </filter>
  </defs>
  <g fill="none" fill-rule="evenodd" filter="url(#close-modal-a)" transform="translate(-5 -5)">
    <path fill="#FFF" d="M5.72,5.72 C6.01281755,5.42754662 6.48718245,5.42754662 6.78,5.72 L12,10.94 L17.22,5.72 C17.4069706,5.51934682 17.6885555,5.43675082 17.9542889,5.50461446 C18.2200223,5.5724781 18.4275219,5.77997772 18.4953855,6.04571109 C18.5632492,6.31144446 18.4806532,6.59302942 18.28,6.78 L13.06,12 L18.28,17.22 C18.4806532,17.4069706 18.5632492,17.6885555 18.4953855,17.9542889 C18.4275219,18.2200223 18.2200223,18.4275219 17.9542889,18.4953855 C17.6885555,18.5632492 17.4069706,18.4806532 17.22,18.28 L12,13.06 L6.78,18.28 C6.48449025,18.5553589 6.02399028,18.5472339 5.7383782,18.2616218 C5.45276612,17.9760097 5.44464114,17.5155098 5.72,17.22 L10.94,12 L5.72,6.78 C5.42754662,6.48718245 5.42754662,6.01281755 5.72,5.72 Z"/>
    <rect width="24" height="24"/>
  </g>
</svg>
