<svg xmlns="http://www.w3.org/2000/svg" width="16" height="17" viewBox="0 0 16 17">
  <defs>
    <filter id="copy-value-copy-a">
      <feColorMatrix in="SourceGraphic" values="0 0 0 0 0.000000 0 0 0 0 0.000000 0 0 0 0 0.000000 0 0 0 1.000000 0"/>
    </filter>
  </defs>
  <g fill="none" fill-rule="evenodd" filter="url(#copy-value-copy-a)" transform="translate(0 .5)">
    <path fill="#FFF" d="M1.55555556,0 C0.696445945,0 0,0.696445945 0,1.55555556 L0,10 C0,10.8586667 0.696888889,11.5555556 1.55555556,11.5555556 L2.88888889,11.5555556 C3.25707872,11.5555556 3.55555556,11.2570787 3.55555556,10.8888889 C3.55555556,10.5206991 3.25707872,10.2222222 2.88888889,10.2222222 L1.55555556,10.2222222 C1.43282561,10.2222222 1.33333333,10.1227299 1.33333333,10 L1.33333333,1.55555556 C1.33333333,1.43282561 1.43282561,1.33333333 1.55555556,1.33333333 L10,1.33333333 C10.1227299,1.33333333 10.2222222,1.43282561 10.2222222,1.55555556 L10.2222222,2.88888889 C10.2222222,3.25707872 10.5206991,3.55555556 10.8888889,3.55555556 C11.2570787,3.55555556 11.5555556,3.25707872 11.5555556,2.88888889 L11.5555556,1.55555556 C11.5555556,0.696445945 10.8591096,0 10,0 L1.55555556,0 Z M6,4.44444444 C5.14089039,4.44444444 4.44444444,5.14089039 4.44444444,6 L4.44444444,14.4444444 C4.44444444,15.3031111 5.14133333,16 6,16 L14.4444444,16 C15.3035541,16 16,15.3035541 16,14.4444444 L16,6 C16,5.14089039 15.3035541,4.44444444 14.4444444,4.44444444 L6,4.44444444 Z M5.77777778,6 C5.77777778,5.87727006 5.87727006,5.77777778 6,5.77777778 L14.4444444,5.77777778 C14.5671744,5.77777778 14.6666667,5.87727006 14.6666667,6 L14.6666667,14.4444444 C14.6666667,14.5671744 14.5671744,14.6666667 14.4444444,14.6666667 L6,14.6666667 C5.87727006,14.6666667 5.77777778,14.5671744 5.77777778,14.4444444 L5.77777778,6 Z"/>
  </g>
</svg>
