<svg xmlns="http://www.w3.org/2000/svg" width="13" height="13" viewBox="0 0 13 13">
  <defs>
    <filter id="external-link-copy-a">
      <feColorMatrix in="SourceGraphic" values="0 0 0 0 0.000000 0 0 0 0 0.000000 0 0 0 0 0.000000 0 0 0 1.000000 0"/>
    </filter>
  </defs>
  <g fill="none" fill-rule="evenodd" filter="url(#external-link-copy-a)" transform="translate(-2 -1)">
    <path fill="#FFF" d="M10.604,0.999999597 L14.75,0.999999597 C14.8880712,0.999999597 15.0000004,1.11192881 15.0000004,1.25 L15.0000004,5.396 C15.0001812,5.49725444 14.9392686,5.58861924 14.8457316,5.62739215 C14.7521947,5.66616507 14.6445071,5.64468842 14.573,5.573 L13.03,4.03 L9.28,7.78 C8.98449025,8.05535886 8.52399028,8.04723388 8.2383782,7.7616218 C7.95276612,7.47600972 7.94464114,7.01550975 8.22,6.72 L11.97,2.97 L10.427,1.427 C10.3553116,1.3554929 10.3338349,1.24780528 10.3726078,1.15426836 C10.4113808,1.06073144 10.5027456,0.999818838 10.604,0.999999597 Z M3.75,2 C2.78350169,2 2,2.78350169 2,3.75 L2,12.25 C2,13.216 2.784,14 3.75,14 L12.25,14 C13.2164983,14 14,13.2164983 14,12.25 L14,8.75 C14,8.33578644 13.6642136,8 13.25,8 C12.8357864,8 12.5,8.33578644 12.5,8.75 L12.5,12.25 C12.5,12.3880712 12.3880712,12.5 12.25,12.5 L3.75,12.5 C3.61192881,12.5 3.5,12.3880712 3.5,12.25 L3.5,3.75 C3.5,3.61192881 3.61192881,3.5 3.75,3.5 L7.25,3.5 C7.66421356,3.5 8,3.16421356 8,2.75 C8,2.33578644 7.66421356,2 7.25,2 L3.75,2 Z"/>
    <rect width="16" height="16"/>
  </g>
</svg>
