<svg xmlns="http://www.w3.org/2000/svg" width="16" height="17" viewBox="0 0 16 17">
  <defs>
    <filter id="help-tooltip-copy-a">
      <feColorMatrix in="SourceGraphic" values="0 0 0 0 0.000000 0 0 0 0 0.000000 0 0 0 0 0.000000 0 0 0 1.000000 0"/>
    </filter>
  </defs>
  <g fill="none" fill-rule="evenodd" filter="url(#help-tooltip-copy-a)" transform="translate(0 .5)">
    <path fill="#FFF" d="M8,1.5 C4.41014913,1.5 1.5,4.41014913 1.5,8 C1.5,11.5898509 4.41014913,14.5 8,14.5 C11.5898509,14.5 14.5,11.5898509 14.5,8 C14.5,4.41014913 11.5898509,1.5 8,1.5 Z M0,8 C0,3.581722 3.581722,0 8,0 C12.418278,0 16,3.581722 16,8 C16,12.418278 12.418278,16 8,16 C3.581722,16 0,12.418278 0,8 Z M9,11 C9,11.5522847 8.55228475,12 8,12 C7.44771525,12 7,11.5522847 7,11 C7,10.4477153 7.44771525,10 8,10 C8.55228475,10 9,10.4477153 9,11 Z M6.92,6.085 C7.001,5.925 7.11,5.786 7.26,5.687 C7.405,5.59 7.631,5.5 8,5.5 C8.28,5.5 8.553,5.587 8.738,5.725 C8.90885304,5.84412506 9.00752908,6.04185376 9,6.25 C9,6.427 8.96,6.514 8.923,6.568 C8.84749252,6.66691682 8.75339911,6.75014024 8.646,6.813 C8.57,6.864 8.488,6.913 8.388,6.974 L8.381,6.978 C8.27513043,7.04050104 8.17076739,7.10551955 8.068,7.173 C7.79556766,7.3449894 7.56028633,7.56973067 7.376,7.834 C7.15179371,8.17845597 7.24657901,8.63919645 7.58854903,8.86717646 C7.93051904,9.09515647 8.39227383,9.00544271 8.624,8.666 C8.69921383,8.56718211 8.79296033,8.48396511 8.9,8.421 C8.98536153,8.36557433 9.07205365,8.31222534 9.16,8.261 L9.166,8.257 C9.259,8.2 9.37,8.134 9.479,8.062 C9.701,7.913 9.966,7.707 10.171,7.4 C10.385,7.08 10.5,6.698 10.5,6.25 C10.5,5.49 10.14,4.902 9.637,4.525 C9.1611392,4.18018886 8.58764297,3.99626368 8,4 C7.369,4 6.845,4.16 6.428,4.438 C6.015,4.714 5.748,5.076 5.579,5.415 C5.45682199,5.65503282 5.47273419,5.94214786 5.6206882,6.1672097 C5.76864222,6.39227153 6.02591644,6.52071694 6.29471824,6.50372246 C6.56352005,6.48672799 6.80256896,6.32690352 6.921,6.085 L6.92,6.085 Z"/>
    <rect width="16" height="16"/>
  </g>
</svg>
