<svg xmlns="http://www.w3.org/2000/svg" width="16" height="17" viewBox="0 0 16 17">
  <defs>
    <filter id="info-tooltip-copy-a">
      <feColorMatrix in="SourceGraphic" values="0 0 0 0 0.000000 0 0 0 0 0.000000 0 0 0 0 0.000000 0 0 0 1.000000 0"/>
    </filter>
  </defs>
  <g fill="none" fill-rule="evenodd" filter="url(#info-tooltip-copy-a)" transform="translate(0 .5)">
    <path fill="#FFF" d="M8,1.5 C4.41014913,1.5 1.5,4.41014913 1.5,8 C1.5,11.5898509 4.41014913,14.5 8,14.5 C11.5898509,14.5 14.5,11.5898509 14.5,8 C14.5,4.41014913 11.5898509,1.5 8,1.5 Z M0,8 C0,3.581722 3.581722,0 8,0 C12.418278,0 16,3.581722 16,8 C16,12.418278 12.418278,16 8,16 C3.581722,16 0,12.418278 0,8 Z M6.5,7.75 C6.5,7.33578644 6.83578644,7 7.25,7 L8.25,7 C8.66421356,7 9,7.33578644 9,7.75 L9,10.5 L9.25,10.5 C9.66421356,10.5 10,10.8357864 10,11.25 C10,11.6642136 9.66421356,12 9.25,12 L7.25,12 C6.83578644,12 6.5,11.6642136 6.5,11.25 C6.5,10.8357864 6.83578644,10.5 7.25,10.5 L7.5,10.5 L7.5,8.5 L7.25,8.5 C6.83578644,8.5 6.5,8.16421356 6.5,7.75 Z M8,6 C8.55228475,6 9,5.55228475 9,5 C9,4.44771525 8.55228475,4 8,4 C7.44771525,4 7,4.44771525 7,5 C7,5.55228475 7.44771525,6 8,6 Z"/>
  </g>
</svg>
