<svg xmlns="http://www.w3.org/2000/svg" width="14" height="14" viewBox="0 0 14 14">
  <defs>
    <filter id="search-a">
      <feColorMatrix in="SourceGraphic" values="0 0 0 0 0.000000 0 0 0 0 0.000000 0 0 0 0 0.000000 0 0 0 1.000000 0"/>
    </filter>
  </defs>
  <g fill="none" fill-rule="evenodd" filter="url(#search-a)" transform="translate(-1 -1)">
    <path fill="#FFF" d="M11.5,7 C11.5,9.48472909 9.48572909,11.499 7.001,11.499 C4.51627091,11.499 2.502,9.48472909 2.502,7 C2.502,4.51527091 4.51627091,2.501 7.001,2.501 C9.48572909,2.501 11.5,4.51527091 11.5,7 L11.5,7 Z M10.68,11.74 C8.17766993,13.6826671 4.59621372,13.3452426 2.50074947,10.9693973 C0.405285231,8.59355194 0.517907262,4.9979991 2.75795318,2.75795318 C4.9979991,0.517907262 8.59355194,0.405285231 10.9693973,2.50074947 C13.3452426,4.59621372 13.6826671,8.17766993 11.74,10.68 L14.78,13.72 C14.9806532,13.9069706 15.0632492,14.1885555 14.9953855,14.4542889 C14.9275219,14.7200223 14.7200223,14.9275219 14.4542889,14.9953855 C14.1885555,15.0632492 13.9069706,14.9806532 13.72,14.78 L10.68,11.74 L10.68,11.74 Z"/>
    <rect width="16" height="16"/>
  </g>
</svg>
