<svg xmlns="http://www.w3.org/2000/svg" width="16" height="17" viewBox="0 0 16 17">
  <defs>
    <filter id="settings-copy-a">
      <feColorMatrix in="SourceGraphic" values="0 0 0 0 0.000000 0 0 0 0 0.000000 0 0 0 0 0.000000 0 0 0 1.000000 0"/>
    </filter>
  </defs>
  <g fill="none" fill-rule="evenodd" filter="url(#settings-copy-a)" transform="translate(0 .5)">
    <path fill="#FFF" d="M7.429,1.525 C7.80895015,1.49196954 8.19104985,1.49196954 8.571,1.525 C8.607,1.528 8.679,1.561 8.708,1.671 L8.997,2.776 C9.144,3.336 9.547,3.743 9.994,3.965 C10.168,4.051 10.335,4.148 10.495,4.255 C10.912,4.533 11.465,4.678 12.025,4.525 L13.127,4.222 C13.237,4.192 13.302,4.238 13.322,4.268 C13.541,4.578 13.732,4.909 13.895,5.257 C13.909,5.288 13.917,5.367 13.836,5.447 L13.021,6.253 C12.61,6.659 12.459,7.21 12.491,7.709 C12.5033171,7.9028045 12.5033171,8.0971955 12.491,8.291 C12.459,8.79 12.61,9.341 13.021,9.747 L13.836,10.553 C13.916,10.633 13.909,10.712 13.895,10.743 C13.7334918,11.0892119 13.5417482,11.4204967 13.322,11.733 C13.302,11.762 13.236,11.807 13.127,11.778 L12.024,11.475 C11.465,11.322 10.912,11.467 10.495,11.745 C10.335,11.852 10.168,11.949 9.995,12.035 C9.546,12.257 9.144,12.663 8.997,13.224 L8.708,14.329 C8.679,14.439 8.607,14.472 8.571,14.475 C8.1910455,14.5079302 7.8089545,14.5079302 7.429,14.475 C7.393,14.472 7.321,14.438 7.292,14.329 L7.003,13.224 C6.856,12.664 6.453,12.257 6.006,12.035 C5.83295166,11.9491812 5.66560581,11.8523143 5.505,11.745 C5.088,11.467 4.535,11.322 3.975,11.475 L2.873,11.778 C2.763,11.808 2.698,11.762 2.678,11.732 C2.458294,11.4198212 2.26655104,11.0888722 2.105,10.743 C2.091,10.712 2.083,10.633 2.164,10.553 L2.979,9.747 C3.39,9.341 3.541,8.79 3.509,8.291 C3.4966802,8.09719559 3.4966802,7.90280441 3.509,7.709 C3.541,7.21 3.39,6.659 2.979,6.253 L2.164,5.447 C2.084,5.367 2.091,5.288 2.105,5.257 C2.26625676,4.91065708 2.45801297,4.57935055 2.678,4.267 C2.698,4.238 2.764,4.192 2.873,4.222 L3.976,4.525 C4.535,4.678 5.088,4.533 5.505,4.255 C5.665,4.148 5.832,4.051 6.005,3.965 C6.454,3.743 6.856,3.337 7.003,2.776 L7.292,1.671 C7.321,1.561 7.393,1.528 7.429,1.525 L7.429,1.525 Z M8,-8.8817842e-16 C7.764,-8.8817842e-16 7.53,0.01 7.299,0.03 C6.556,0.095 6.009,0.645 5.841,1.291 L5.551,2.397 C5.534,2.463 5.473,2.555 5.34,2.621 C5.10927525,2.73518826 4.88614651,2.86412193 4.672,3.007 C4.549,3.089 4.439,3.097 4.372,3.078 L3.27,2.776 C2.626,2.599 1.878,2.796 1.45,3.406 C1.17997149,3.79015557 0.944390041,4.19740361 0.746,4.623 C0.431,5.298 0.635,6.045 1.109,6.514 L1.924,7.32 C1.974,7.368 2.022,7.467 2.012,7.614 C1.995657,7.87107385 1.995657,8.12892615 2.012,8.386 C2.022,8.533 1.974,8.632 1.924,8.68 L1.109,9.486 C0.635,9.955 0.431,10.702 0.746,11.377 C0.946,11.805 1.182,12.212 1.45,12.595 C1.878,13.204 2.626,13.401 3.27,13.225 L4.373,12.922 C4.439,12.903 4.549,12.911 4.672,12.993 C4.885,13.136 5.108,13.265 5.34,13.379 C5.473,13.445 5.534,13.537 5.552,13.603 L5.841,14.709 C6.01,15.355 6.556,15.905 7.299,15.969 C7.76545368,16.0095507 8.23454632,16.0095507 8.701,15.969 C9.444,15.905 9.991,15.355 10.159,14.709 L10.449,13.603 C10.466,13.537 10.527,13.445 10.66,13.379 C10.8907431,13.264846 11.113874,13.1359111 11.328,12.993 C11.451,12.911 11.561,12.903 11.628,12.922 L12.73,13.224 C13.374,13.401 14.122,13.204 14.55,12.594 C14.818,12.212 15.055,11.805 15.254,11.377 C15.569,10.702 15.365,9.955 14.89,9.486 L14.076,8.68 C14.026,8.632 13.978,8.533 13.988,8.386 C14.0043,8.12892479 14.0043,7.87107521 13.988,7.614 C13.978,7.467 14.027,7.368 14.076,7.32 L14.89,6.514 C15.365,6.045 15.569,5.298 15.254,4.623 C15.0555928,4.19709517 14.8200137,3.78951651 14.55,3.405 C14.122,2.796 13.374,2.599 12.73,2.775 L11.627,3.078 C11.561,3.097 11.451,3.089 11.328,3.007 C11.1138579,2.86411487 10.8907287,2.73518093 10.66,2.621 C10.527,2.555 10.466,2.463 10.448,2.397 L10.16,1.29 C9.99,0.645 9.444,0.095 8.701,0.031 C8.46789131,0.0105382467 8.23400493,0.000195196679 8,-8.8817842e-16 Z M9.5,8 C9.5,8.82842712 8.82842712,9.5 8,9.5 C7.17157288,9.5 6.5,8.82842712 6.5,8 C6.5,7.17157288 7.17157288,6.5 8,6.5 C8.82842712,6.5 9.5,7.17157288 9.5,8 Z M11,8 C11,9.65685425 9.65685425,11 8,11 C6.34314575,11 5,9.65685425 5,8 C5,6.34314575 6.34314575,5 8,5 C9.65685425,5 11,6.34314575 11,8 L11,8 Z"/>
  </g>
</svg>
