<svg xmlns="http://www.w3.org/2000/svg" width="11" height="15" viewBox="0 0 11 15">
  <defs>
    <filter id="stats-tooltip-copy-a">
      <feColorMatrix in="SourceGraphic" values="0 0 0 0 0.000000 0 0 0 0 0.000000 0 0 0 0 0.000000 0 0 0 1.000000 0"/>
    </filter>
  </defs>
  <g fill="none" fill-rule="evenodd" filter="url(#stats-tooltip-copy-a)" transform="translate(-1)">
    <path fill="#FFF" d="M0.75,5 C0.335786438,5 0,5.33578644 0,5.75 C0,6.16421356 0.335786438,6.5 0.75,6.5 L13.25,6.5 C13.6642136,6.5 14,6.16421356 14,5.75 C14,5.33578644 13.6642136,5 13.25,5 L0.75,5 Z M-3.16101136e-08,10.25 C-3.16101136e-08,9.83578644 0.335786406,9.5 0.749999968,9.5 L9.24999997,9.5 C9.66421353,9.5 9.99999997,9.83578644 9.99999997,10.25 C9.99999997,10.6642136 9.66421353,11 9.24999997,11 L0.749999968,11 C0.551087601,11 0.360322166,10.9209824 0.219669882,10.7803301 C0.0790175987,10.6396778 -3.16101136e-08,10.4489124 -3.16101136e-08,10.25 L-3.16101136e-08,10.25 Z M0.75,0.5 L7.25,0.5 C7.66421355,0.5 8,0.83578645 8,1.25 C8,1.66421355 7.66421355,2 7.25,2 L0.75,2 C0.335786438,2 5.68434189e-14,1.66421356 5.68434189e-14,1.25 C5.68434189e-14,0.835786438 0.335786438,0.5 0.75,0.5 Z" transform="rotate(-90 7.5 7)"/>
  </g>
</svg>
