<svg xmlns="http://www.w3.org/2000/svg" width="12" height="15" viewBox="0 0 12 15">
  <defs>
    <filter id="swap-copy-a">
      <feColorMatrix in="SourceGraphic" values="0 0 0 0 0.000000 0 0 0 0 0.000000 0 0 0 0 0.000000 0 0 0 1.000000 0"/>
    </filter>
  </defs>
  <g fill="none" fill-rule="evenodd" filter="url(#swap-copy-a)" transform="translate(0 .5)">
    <path fill="#FFF" fill-rule="nonzero" d="M3.22,13.78 C3.51550975,14.0553589 3.97600972,14.0472339 4.2616218,13.7616218 C4.54723388,13.4760097 4.55535886,13.0155098 4.28,12.72 L2.56,11 L11.25,11 C11.6642136,11 12,10.6642136 12,10.25 C12,9.83578644 11.6642136,9.5 11.25,9.5 L2.56,9.5 L4.28,7.78 C4.55535886,7.48449025 4.54723388,7.02399028 4.2616218,6.7383782 C3.97600972,6.45276612 3.51550975,6.44464114 3.22,6.72 L0.22,9.72 C-0.0724533781,10.0128175 -0.0724533781,10.4871825 0.22,10.78 L3.22,13.78 Z M8.78,7.28 C8.59302942,7.48065318 8.31144446,7.56324918 8.04571109,7.49538554 C7.77997772,7.4275219 7.5724781,7.22002228 7.50461446,6.95428891 C7.43675082,6.68855554 7.51934682,6.40697058 7.72,6.22 L9.44,4.5 L0.75,4.5 C0.335786438,4.5 0,4.16421356 0,3.75 C0,3.33578644 0.335786438,3 0.75,3 L9.44,3 L7.72,1.28 C7.44464114,0.984490246 7.45276612,0.523990278 7.7383782,0.238378201 C8.02399028,-0.0472338759 8.48449025,-0.0553588604 8.78,0.22 L11.78,3.22 C12.0724534,3.51281755 12.0724534,3.98718245 11.78,4.28 L8.78,7.28 Z"/>
  </g>
</svg>
